<svg xmlns="http://www.w3.org/2000/svg" width="18" height="18" viewBox="0 0 18 18">
  <path fill="#6A9FB5" fill-rule="evenodd" d="M11.375,7.125 L10.984375,6.0234375 C10.723957,5.28905883 10.0468805,4.90625016 8.953125,4.875 C8.41145563,4.85416656 7.93229375,4.94270734 7.515625,5.140625 C7.10937297,5.33854266 6.76823055,5.6171857 6.4921875,5.9765625 C6.21614445,6.3359393 6.00520906,6.77083078 5.859375,7.28125 C5.72395766,7.79166922 5.65625,8.35416359 5.65625,8.96875 C5.65625,9.57291969 5.72916594,10.1458306 5.875,10.6875 C6.03125078,11.2187527 6.25260273,11.6822897 6.5390625,12.078125 C6.82552227,12.4739603 7.17708125,12.7864572 7.59375,13.015625 C8.01041875,13.2447928 8.48437234,13.359375 9.015625,13.359375 C9.54687766,13.359375 9.96874844,13.2343763 10.28125,12.984375 C10.5937516,12.723957 10.8307284,12.4427098 10.9921875,12.140625 C11.1536466,11.8385402 11.2604164,11.557293 11.3125,11.296875 L11.375,10.921875 L15.4375,11.15625 L15.453125,11.53125 C15.4635417,11.7812513 15.4296879,12.0963523 15.3515625,12.4765625 C15.2734371,12.8567727 15.1302094,13.2760394 14.921875,13.734375 C14.7239573,14.1927106 14.4114605,14.6302063 13.984375,15.046875 C13.5572895,15.4739605 13.1093773,15.8124987 12.640625,16.0625 C12.1822894,16.322918 11.7239606,16.5234368 11.265625,16.6640625 C10.8072894,16.8046882 10.3593772,16.8958331 9.921875,16.9375 C9.49478953,16.9791669 9.09896016,17 8.734375,17 C8.36978984,17 7.96875219,16.9895834 7.53125,16.96875 C7.10416453,16.9479166 6.65885648,16.8776048 6.1953125,16.7578125 C5.73176852,16.6380202 5.25521078,16.4427097 4.765625,16.171875 C4.2656225,15.9010403 3.77083578,15.5156275 3.28125,15.015625 C2.80208094,14.5156225 2.41145984,14.0208358 2.109375,13.53125 C1.80729016,13.0312475 1.57552164,12.5364608 1.4140625,12.046875 C1.25260336,11.5572892 1.14062531,11.0729191 1.078125,10.59375 C1.02604141,10.1145809 1,9.63541906 1,9.15625 C1,8.67708094 1.03124969,8.16666937 1.09375,7.625 C1.15625031,7.08333063 1.2838532,6.53385695 1.4765625,5.9765625 C1.6692718,5.41926805 1.94270656,4.86979438 2.296875,4.328125 C2.65104344,3.77603891 3.11978875,3.26041906 3.703125,2.78125 C4.09896031,2.45833172 4.49478969,2.18229281 4.890625,1.953125 C5.28646031,1.72395719 5.68489383,1.5390632 6.0859375,1.3984375 C6.48698117,1.2578118 6.88541469,1.15625031 7.28125,1.09375 C7.68750203,1.03124969 8.08853969,1 8.484375,1 C10.1614667,1 11.4739536,1.32291344 12.421875,1.96875 C13.3802131,2.60416984 14.0963518,3.30989195 14.5703125,4.0859375 C15.0442732,4.86198305 15.3385411,5.56770516 15.453125,6.203125 L15.625,7.171875 L11.375,7.125 Z"/>
</svg>
