<svg xmlns="http://www.w3.org/2000/svg" width="18" height="18" viewBox="0 0 18 18">
  <path fill="#825078" fill-rule="evenodd" d="M15.2578125,5.55664062 L18,5.55664062 C17.390622,6.64648982 16.8339869,7.62499566 16.3300781,8.4921875 C15.8378882,9.34766053 15.3779318,10.0771454 14.9501953,10.6806641 C14.5224588,11.2841827 14.1152363,11.744139 13.7285156,12.0605469 C13.3535138,12.3769547 12.9843768,12.5351562 12.6210938,12.5351562 L9.03515625,12.5351562 C8.56640391,12.5351562 8.18554834,12.3417988 7.89257812,11.9550781 C7.59960791,11.5683574 7.35937594,11.0908232 7.171875,10.5224609 C6.98437406,9.95409872 6.8203132,9.34765947 6.6796875,8.703125 C6.55078061,8.07030934 6.4042977,7.50781496 6.24023438,7.015625 L5.88867188,7.015625 C5.67773332,7.23828236 5.51367246,7.48437365 5.39648438,7.75390625 C5.27929629,8.02343885 5.10937611,8.32226398 4.88671875,8.65039062 C4.79296828,8.94336084 4.69043024,9.27148256 4.57910156,9.63476562 C4.46777288,9.99804869 4.34765689,10.3847636 4.21875,10.7949219 C4.04296787,11.3339871 3.77050966,11.7763655 3.40136719,12.1220703 C3.03222472,12.4677752 2.48437863,12.6582029 1.7578125,12.6933594 L0,12.6933594 C0.257813789,11.7089795 0.580076191,10.7890668 0.966796875,9.93359375 C1.36523637,9.08983953 1.79003681,8.35156566 2.24121094,7.71875 C2.69238507,7.08593434 3.15234141,6.58789244 3.62109375,6.22460938 C4.08984609,5.86132631 4.52929482,5.6796875 4.93945312,5.6796875 L8.77148438,5.6796875 C9.24023672,5.6796875 9.62109229,5.87890426 9.9140625,6.27734375 C10.2070327,6.67578324 10.4472647,7.1621065 10.6347656,7.73632812 C10.8222666,8.31054975 10.9863274,8.91991865 11.1269531,9.56445312 C11.25586,10.1972688 11.4023429,10.7656225 11.5664062,11.2695312 C11.7421884,10.8828106 11.9267568,10.3789094 12.1201172,9.7578125 C12.3134775,9.13671564 12.5566392,8.35742656 12.8496094,7.41992188 C13.0136727,6.89257549 13.2802716,6.45898607 13.6494141,6.11914062 C14.0185565,5.77929518 14.554684,5.59179705 15.2578125,5.55664062 Z"/>
</svg>
