<svg xmlns="http://www.w3.org/2000/svg" width="18" height="18" viewBox="0 0 18 18">
  <path fill="#75B5AA" fill-rule="evenodd" d="M5.015625,6.21875 C5.19270922,6.21875 5.34635352,6.28645766 5.4765625,6.421875 C5.60677148,6.55729234 5.671875,6.72395734 5.671875,6.921875 C5.671875,7.11979266 5.60677148,7.2890618 5.4765625,7.4296875 C5.34635352,7.5703132 5.19270922,7.640625 5.015625,7.640625 C4.82812406,7.640625 4.67187563,7.5703132 4.546875,7.4296875 C4.42187437,7.2890618 4.359375,7.11979266 4.359375,6.921875 C4.359375,6.72395734 4.42187437,6.55729234 4.546875,6.421875 C4.67187563,6.28645766 4.82812406,6.21875 5.015625,6.21875 Z M5.3125,7.265625 C5.35416688,7.265625 5.39062484,7.25000016 5.421875,7.21875 C5.45312516,7.18749984 5.46875,7.14583359 5.46875,7.09375 C5.46875,7.04166641 5.45312516,6.99739602 5.421875,6.9609375 C5.39062484,6.92447898 5.35416688,6.90625 5.3125,6.90625 C5.27083313,6.90625 5.23437516,6.92447898 5.203125,6.9609375 C5.17187484,6.99739602 5.15625,7.04166641 5.15625,7.09375 C5.15625,7.14583359 5.17187484,7.18749984 5.203125,7.21875 C5.23437516,7.25000016 5.27083313,7.265625 5.3125,7.265625 Z M10.515625,6.03125 C10.6927092,6.03125 10.8437494,6.1015618 10.96875,6.2421875 C11.0937506,6.3828132 11.15625,6.55208234 11.15625,6.75 C11.15625,6.94791766 11.0937506,7.1171868 10.96875,7.2578125 C10.8437494,7.3984382 10.6927092,7.46875 10.515625,7.46875 C10.3385408,7.46875 10.1875006,7.3984382 10.0625,7.2578125 C9.93749937,7.1171868 9.875,6.94791766 9.875,6.75 C9.875,6.55208234 9.93749937,6.3828132 10.0625,6.2421875 C10.1875006,6.1015618 10.3385408,6.03125 10.515625,6.03125 Z M10.8125,7.09375 C10.8541669,7.09375 10.8906248,7.07552102 10.921875,7.0390625 C10.9531252,7.00260398 10.96875,6.95833359 10.96875,6.90625 C10.96875,6.86458312 10.9531252,6.82552102 10.921875,6.7890625 C10.8906248,6.75260398 10.8541669,6.734375 10.8125,6.734375 C10.7708331,6.734375 10.7343752,6.75260398 10.703125,6.7890625 C10.6718748,6.82552102 10.65625,6.86458312 10.65625,6.90625 C10.65625,6.95833359 10.6718748,7.00260398 10.703125,7.0390625 C10.7343752,7.07552102 10.7708331,7.09375 10.8125,7.09375 Z M15.703125,4.296875 C15.9322928,4.35937531 16.1380199,4.46354094 16.3203125,4.609375 C16.5026051,4.75520906 16.6510411,4.92708234 16.765625,5.125 C16.8802089,5.33333437 16.9531248,5.54947805 16.984375,5.7734375 C17.0156252,5.99739695 17.0000003,6.21354063 16.9375,6.421875 C16.864583,6.65104281 16.7395842,6.85156164 16.5625,7.0234375 C16.3854158,7.19531336 16.1562514,7.33333281 15.875,7.4375 C15.9583338,7.75000156 16.0286455,8.072915 16.0859375,8.40625 C16.1432295,8.739585 16.1927081,9.08333156 16.234375,9.4375 C16.2968753,10.0625031 16.3437498,10.6666638 16.375,11.25 C16.3958334,11.8229195 16.40625,12.3489559 16.40625,12.828125 C16.40625,13.3072941 16.4010417,13.7187483 16.390625,14.0625 C16.3802083,14.395835 16.375,14.6406242 16.375,14.796875 L2.140625,14.796875 C2.140625,14.6302075 2.11979187,14.3645852 2.078125,14 C2.04687484,13.6458316 2.01302102,13.2395856 1.9765625,12.78125 C1.94010398,12.3229144 1.91145844,11.8437525 1.890625,11.34375 C1.85937484,10.8333308 1.85416656,10.3541689 1.875,9.90625 C1.875,9.51041469 1.89843727,9.12760602 1.9453125,8.7578125 C1.99218773,8.38801898 2.05729125,8.03646 2.140625,7.703125 C1.86979031,7.59895781 1.64583422,7.46875078 1.46875,7.3125 C1.29166578,7.15624922 1.16666703,6.97395937 1.09375,6.765625 C1.01041625,6.56770734 0.981770703,6.35416781 1.0078125,6.125 C1.0338543,5.89583219 1.10416609,5.68229266 1.21875,5.484375 C1.33333391,5.27604063 1.48437406,5.09375078 1.671875,4.9375 C1.85937594,4.78124922 2.06249891,4.67187531 2.28125,4.609375 C2.52083453,4.53645797 2.76822789,4.51822898 3.0234375,4.5546875 C3.27864711,4.59114602 3.53124875,4.68749922 3.78125,4.84375 C3.9479175,4.69791594 4.12499906,4.56510477 4.3125,4.4453125 C4.50000094,4.32552023 4.69791563,4.21354219 4.90625,4.109375 C5.42708594,3.85937375 6.01301758,3.6640632 6.6640625,3.5234375 C7.31510742,3.3828118 8.06770406,3.27604203 8.921875,3.203125 C9.72396234,3.203125 10.4296845,3.24218711 11.0390625,3.3203125 C11.6484405,3.39843789 12.2031225,3.53124906 12.703125,3.71875 C12.9843764,3.83333391 13.2526029,3.9609368 13.5078125,4.1015625 C13.7630221,4.2421882 13.9999989,4.40624906 14.21875,4.59375 C14.4687513,4.4270825 14.7213529,4.32031273 14.9765625,4.2734375 C15.2317721,4.22656227 15.4739572,4.23437469 15.703125,4.296875 Z M3.875,7.328125 C4.0416675,7.95312812 4.3749975,8.39062375 4.875,8.640625 C5.3750025,8.89062625 5.89062234,8.97656289 6.421875,8.8984375 C6.95312766,8.82031211 7.42187297,8.58854359 7.828125,8.203125 C8.22396031,7.82812313 8.40625016,7.32291984 8.375,6.6875 C8.35416656,6.33333156 8.26822992,6.02083469 8.1171875,5.75 C7.96614508,5.47916531 7.76041797,5.2604175 7.5,5.09375 C7.27083219,4.93749922 7.01041813,4.82812531 6.71875,4.765625 C6.42708188,4.70312469 6.13020984,4.69270812 5.828125,4.734375 C5.52604016,4.77604188 5.24218883,4.86197852 4.9765625,4.9921875 C4.71093617,5.12239648 4.48437594,5.29687391 4.296875,5.515625 C4.09895734,5.74479281 3.96354203,6.0130193 3.890625,6.3203125 C3.81770797,6.6276057 3.81249969,6.96353984 3.875,7.328125 Z M8.671875,10.921875 C8.68229172,10.8385412 8.68489586,10.7526046 8.6796875,10.6640625 L8.671875,10.53125 L7.796875,10.8125 C7.77604156,10.9895842 7.77604156,11.1692699 7.796875,11.3515625 C7.81770844,11.5338551 7.86979125,11.6979159 7.953125,11.84375 C8.01562531,11.9583339 8.10937437,12.0052084 8.234375,11.984375 C8.35937563,11.9635416 8.5052075,11.8645842 8.671875,11.6875 C8.66145828,11.5937495 8.65625,11.5130212 8.65625,11.4453125 L8.65625,11.15625 C8.66666672,11.1249998 8.671875,11.0937502 8.671875,11.0625 L8.671875,10.921875 Z M9.828125,11.40625 L9.828125,11.0546875 C9.828125,10.8723949 9.81770844,10.7656252 9.796875,10.734375 C9.77604156,10.7031248 9.64323039,10.6562503 9.3984375,10.59375 L9.03125,10.5 L9.03125,10.6328125 C9.03125,10.6796877 9.02604172,10.7447913 9.015625,10.828125 C9.015625,10.8906253 9.01041672,11.0260406 9,11.234375 C8.98958328,11.4427094 8.98958328,11.5937495 9,11.6875 C9.04166688,11.7708337 9.09114555,11.8437497 9.1484375,11.90625 C9.20572945,11.9687503 9.29166609,12 9.40625,12 C9.52083391,12 9.60937469,11.9687503 9.671875,11.90625 C9.73437531,11.8437497 9.77604156,11.7916669 9.796875,11.75 C9.80729172,11.6979164 9.81510414,11.6432295 9.8203125,11.5859375 C9.82552086,11.5286455 9.828125,11.4687503 9.828125,11.40625 Z M10.484375,10.40625 C10.5885422,10.2916661 10.640625,10.1744798 10.640625,10.0546875 C10.640625,9.93489523 10.5885422,9.81250063 10.484375,9.6875 C10.4218747,9.60416625 10.3333339,9.52083375 10.21875,9.4375 C10.1041661,9.35416625 9.97916734,9.28125031 9.84375,9.21875 C9.89583359,9.15624969 9.92968742,9.08854203 9.9453125,9.015625 C9.96093758,8.94270797 9.95833344,8.86979203 9.9375,8.796875 C9.87499969,8.56770719 9.71614711,8.40885461 9.4609375,8.3203125 C9.20572789,8.23177039 8.95312625,8.20312484 8.703125,8.234375 C8.43229031,8.27604188 8.21614664,8.37499922 8.0546875,8.53125 C7.89322836,8.68750078 7.81770828,8.87499891 7.828125,9.09375 C7.828125,9.12500016 7.83333328,9.15104156 7.84375,9.171875 L7.875,9.234375 C7.64583219,9.29687531 7.47395891,9.44010305 7.359375,9.6640625 C7.24479109,9.88802195 7.23958281,10.0989573 7.34375,10.296875 C7.42708375,10.4531258 7.5390618,10.5390624 7.6796875,10.5546875 C7.8203132,10.5703126 8.02083203,10.5312505 8.28125,10.4375 C8.46875094,10.3749997 8.61458281,10.3307293 8.71875,10.3046875 C8.82291719,10.2786457 8.91666625,10.2708333 9,10.28125 C9.08333375,10.28125 9.16927039,10.2942707 9.2578125,10.3203125 C9.34635461,10.3463543 9.45833266,10.3906247 9.59375,10.453125 C9.72916734,10.5052086 9.82812469,10.5416666 9.890625,10.5625 C9.95312531,10.5833334 10.0156247,10.59375 10.078125,10.59375 C10.151042,10.59375 10.2213538,10.5807293 10.2890625,10.5546875 C10.3567712,10.5286457 10.4218747,10.479167 10.484375,10.40625 Z M13.484375,7.84375 C13.6718759,7.61458219 13.7968747,7.35156398 13.859375,7.0546875 C13.9218753,6.75781102 13.916667,6.43750172 13.84375,6.09375 C13.6874992,5.44791344 13.3593775,5.00000125 12.859375,4.75 C12.3489558,4.49999875 11.8255235,4.42187453 11.2890625,4.515625 C10.7526015,4.60937547 10.281252,4.85937297 9.875,5.265625 C9.46874797,5.67187703 9.28645812,6.20833 9.328125,6.875 L9.328125,6.890625 C9.44270891,7.54687828 9.75780992,8.03124844 10.2734375,8.34375 C10.7890651,8.65625156 11.3697884,8.76041719 12.015625,8.65625 C12.3177098,8.60416641 12.5937487,8.51041734 12.84375,8.375 C13.0937512,8.23958266 13.3072908,8.06250109 13.484375,7.84375 Z M9.765625,8.84375 C9.78645844,8.90625031 9.78645844,8.96354141 9.765625,9.015625 C9.74479156,9.06770859 9.70833359,9.11458312 9.65625,9.15625 C9.52083266,9.28125063 9.31250141,9.36458312 9.03125,9.40625 C8.74999859,9.44791688 8.50520937,9.42708375 8.296875,9.34375 C8.23437469,9.32291656 8.17447945,9.29166688 8.1171875,9.25 C8.05989555,9.20833312 8.02604172,9.15104203 8.015625,9.078125 C8.00520828,8.94270766 8.05208281,8.80989648 8.15625,8.6796875 C8.26041719,8.54947852 8.45312359,8.46354188 8.734375,8.421875 C9.01562641,8.36979141 9.24739492,8.39322867 9.4296875,8.4921875 C9.61198008,8.59114633 9.72395812,8.70833266 9.765625,8.84375 Z"/>
</svg>
