<svg xmlns="http://www.w3.org/2000/svg" width="18" height="18" viewBox="0 0 18 18">
  <path fill="#AC4142" fill-rule="evenodd" d="M6.69726562,13.78625 C6.73242205,13.7745312 6.76464829,13.7686719 6.79394531,13.7686719 L6.890625,13.7686719 C7.13671998,13.7100778 7.18066485,13.7423041 7.02246094,13.8653516 C6.86425702,13.9883991 6.7675783,14.0909371 6.73242188,14.1729688 C7.37695635,14.3487509 8.0390591,14.4190627 8.71875,14.3839063 C9.3984409,14.3487498 10.066403,14.2667194 10.7226562,14.1378125 C10.9453136,14.231563 11.1708973,14.3399603 11.3994141,14.4630078 C11.6279308,14.5860553 11.8593738,14.682734 12.09375,14.7530469 C11.3906215,15.0928923 10.649418,15.318476 9.87011719,15.4298047 C9.09081642,15.5411334 8.31445699,15.544063 7.54101562,15.4385938 C7.2363266,15.3799997 6.9140642,15.3067583 6.57421875,15.2188672 C6.2343733,15.1309761 5.97656338,14.9464077 5.80078125,14.6651563 C5.70703078,14.4073425 5.78320189,14.2081257 6.02929688,14.0675 C6.27539186,13.9268743 6.49804588,13.8331252 6.69726562,13.78625 Z M6.27539062,11.8878125 C6.34570348,11.9112501 6.47460844,11.8819535 6.66210937,11.7999219 C6.84961031,11.7178902 6.82617305,11.7764834 6.59179687,11.9757031 C6.58007807,12.046016 6.50390695,12.1280464 6.36328125,12.2217969 C6.22265555,12.3155473 6.21093691,12.3917185 6.328125,12.4503125 C7.1484416,12.6260946 7.98339419,12.6876175 8.83300781,12.6348828 C9.68262144,12.5821482 10.517574,12.4737508 11.3378906,12.3096875 C11.4902351,12.4737508 11.6689443,12.5997261 11.8740234,12.6876172 C12.0791026,12.7755083 12.281249,12.8604683 12.4804687,12.9425 C12.0234352,13.0831257 11.5546899,13.2061714 11.0742187,13.3116406 C10.6054664,13.4053911 10.1279321,13.4786326 9.64160156,13.5313672 C9.15527101,13.5841018 8.6718774,13.6046094 8.19140625,13.5928906 C7.69921629,13.5928906 7.21289303,13.5577347 6.73242187,13.4874219 C6.47460809,13.4288278 6.19629056,13.3643754 5.89746094,13.2940625 C5.59863132,13.2237497 5.38476627,13.0479702 5.25585938,12.7667188 C5.22070295,12.4971862 5.33202996,12.3038287 5.58984375,12.1866406 C5.84765754,12.0694525 6.07617088,11.9698442 6.27539062,11.8878125 Z M12.796875,3.9425 C12.8671879,3.96593762 12.9814445,3.96300796 13.1396484,3.93371094 C13.2978524,3.90441392 13.2832041,3.94835879 13.0957031,4.06554688 C12.6035132,4.45226756 12.0791043,4.80382655 11.5224609,5.12023438 C10.9658175,5.43664221 10.5292985,5.87609094 10.2128906,6.43859375 C10.0605461,6.83703324 10.1308579,7.1973812 10.4238281,7.51964844 C10.7167983,7.84191568 10.9218744,8.17296705 11.0390625,8.5128125 C11.191407,8.96984604 11.1181656,9.39171682 10.8193359,9.7784375 C10.5205063,10.1651582 10.1894549,10.4639833 9.82617188,10.6749219 C9.68554617,10.7803912 9.52734463,10.8360547 9.3515625,10.8419141 C9.17578037,10.8477735 9.21093627,10.7452354 9.45703125,10.5342969 C9.70312623,10.3467959 9.85839812,10.0919157 9.92285156,9.76964844 C9.98730501,9.4473812 9.89648561,9.16906367 9.65039062,8.9346875 C9.32226398,8.57140444 9.08203201,8.13195571 8.9296875,7.61632813 C8.77734299,7.10070055 8.84765479,6.61437729 9.140625,6.15734375 C9.5507833,5.5362469 10.0927701,5.06457193 10.7666016,4.74230469 C11.4404331,4.42003745 12.1171841,4.15343856 12.796875,3.9425 Z M3.9375,15.8780469 C4.18359498,16.0186726 4.59374713,16.1299996 5.16796875,16.2120313 C5.74219037,16.3057817 6.41894142,16.3643749 7.19824219,16.3878125 C7.97754296,16.4112501 8.83593281,16.4053908 9.7734375,16.3702344 C10.6992234,16.3233591 11.6425733,16.2354694 12.6035156,16.1065625 C12.8730482,16.0479685 13.1542954,15.9981643 13.4472656,15.9571484 C13.7402358,15.9161326 13.9804678,15.7901573 14.1679687,15.5792188 C14.1679687,15.4854683 14.1035163,15.3829302 13.9746094,15.2716016 C13.8457025,15.1602729 13.8222652,15.0928907 13.9042969,15.0694531 C14.0917978,15.0928907 14.2939442,15.1778508 14.5107422,15.3243359 C14.7275401,15.470821 14.7656257,15.6612488 14.625,15.895625 C14.3437486,16.2120328 13.9863303,16.4200386 13.5527344,16.5196484 C13.1191385,16.6192583 12.7089863,16.7217964 12.3222656,16.8272656 C11.5605431,16.9678913 10.7929726,17.0674997 10.0195312,17.1260938 C9.24608988,17.172969 8.47266012,17.1905469 7.69921875,17.1788281 C6.92577738,17.1671093 6.15234762,17.1202348 5.37890625,17.0382031 C4.61718369,16.9678903 3.85547256,16.8565633 3.09375,16.7042188 C2.91796787,16.6924999 2.75683667,16.6016805 2.61035156,16.4317578 C2.46386646,16.2618351 2.46679611,16.0948446 2.61914062,15.9307813 C2.91211084,15.6260922 3.26366982,15.4092975 3.67382812,15.2803906 C4.08398643,15.1514837 4.49413857,15.0694533 4.90429688,15.0342969 C5.12695424,14.9991405 5.32031168,15.0342964 5.484375,15.1397656 C5.64843832,15.2452349 5.81249918,15.3565619 5.9765625,15.47375 C5.62499824,15.4268748 5.2705096,15.4327341 4.91308594,15.4913281 C4.55566228,15.5499222 4.23047021,15.6788271 3.9375,15.8780469 Z M12.1992188,11.114375 C11.9648426,11.2667195 11.5195345,11.3956245 10.8632812,11.5010938 C10.2187468,11.6182818 9.50391018,11.694453 8.71875,11.7296094 C7.93358982,11.7647658 7.14258211,11.7647658 6.34570312,11.7296094 C5.56054295,11.6827341 4.90429951,11.5889851 4.37695312,11.4483594 C4.22460861,11.4249218 4.08691468,11.3399617 3.96386719,11.1934766 C3.8408197,11.0469915 3.85546799,10.9092975 4.0078125,10.7803906 C4.4179708,10.4991392 4.86913816,10.2911335 5.36132812,10.1563672 C5.85351809,10.0216009 6.34570066,9.94250012 6.83789062,9.9190625 C6.95507871,9.90734369 7.06640572,9.91613267 7.171875,9.94542969 C7.27734428,9.97472671 7.38867129,10.006953 7.50585937,10.0421094 C7.23632678,10.1827351 6.95507959,10.2852731 6.66210937,10.3497266 C6.36913916,10.41418 6.08789197,10.5108587 5.81835938,10.6397656 C5.78320295,10.6632032 5.70117252,10.6983591 5.57226562,10.7452344 C5.44335873,10.7921096 5.43749941,10.8272655 5.5546875,10.8507031 C6.31641006,11.0030476 7.08983982,11.0587111 7.875,11.0176953 C8.66016018,10.9766795 9.43944926,10.9327346 10.2128906,10.8858594 C10.681643,10.8624218 11.1533179,10.8008989 11.6279297,10.7012891 C12.1025414,10.6016792 12.5742164,10.5635936 13.0429688,10.5870313 C12.9257807,10.7042193 12.793946,10.8008981 12.6474609,10.8770703 C12.5009758,10.9532426 12.3515633,11.0323433 12.1992188,11.114375 Z M13.78125,9.76085938 C14.2500023,9.71398414 14.6689435,9.86339671 15.0380859,10.2091016 C15.4072284,10.5548064 15.5332037,10.9678882 15.4160156,11.4483594 C15.2285147,12.0342998 14.8623074,12.4737485 14.3173828,12.7667188 C13.7724582,13.059689 13.2304714,13.2882023 12.6914062,13.4522656 C12.3867172,13.5577349 12.2050784,13.5958205 12.1464844,13.5665234 C12.0878903,13.5372264 12.193358,13.4112511 12.4628906,13.1885938 C12.8027361,12.9424988 13.163084,12.6993371 13.5439453,12.4591016 C13.9248066,12.218866 14.1972648,11.8878146 14.3613281,11.4659375 C14.5253914,11.1260921 14.4580093,10.8184779 14.1591797,10.5430859 C13.8603501,10.2676939 13.5410173,10.2003118 13.2011719,10.3409375 C13.0957026,10.3409375 12.9404307,10.4024603 12.7353516,10.5255078 C12.5302724,10.6485553 12.4863275,10.633907 12.6035156,10.4815625 C12.6972661,10.2354675 12.8554676,10.0538287 13.078125,9.93664063 C13.3007824,9.81945254 13.535155,9.76085938 13.78125,9.76085938 Z M10.40625,0.00500000268 C11.0976597,0.649534475 11.3994145,1.33800415 11.3115234,2.07042969 C11.2236324,2.80285523 10.8515658,3.5264808 10.1953125,4.24132813 C9.80859182,4.71008047 9.34277616,5.13488091 8.79785156,5.51574219 C8.25292696,5.89660347 7.92187559,6.40929366 7.8046875,7.05382813 C7.73437465,7.73351903 7.93945072,8.31945067 8.41992188,8.81164063 C8.90039303,9.30383059 9.19921816,9.86046565 9.31640625,10.4815625 C9.04687365,10.2940616 8.79199339,10.0831262 8.55175781,9.84875 C8.31152224,9.61437383 8.07421992,9.38000117 7.83984375,9.145625 C7.4999983,8.77062313 7.17480624,8.34582269 6.86425781,7.87121094 C6.55370938,7.39659919 6.49218656,6.88976832 6.6796875,6.35070313 C6.90234486,5.82335674 7.25976316,5.36633006 7.75195312,4.97960938 C8.25586189,4.59288869 8.74511481,4.20031449 9.21972656,3.801875 C9.69433831,3.40343551 10.0781235,2.95226815 10.3710938,2.44835938 C10.6757828,1.95616942 10.7343759,1.34094119 10.546875,0.602656253 C10.5234374,0.497186975 10.5000001,0.394648938 10.4765625,0.295039065 C10.4531249,0.195429192 10.4296876,0.0987504714 10.40625,0.00500000268 Z M4.41210938,17.1260938 C5.25586359,17.2667195 6.2226508,17.3546092 7.3125,17.3897656 C8.4023492,17.4249221 9.47167444,17.4073441 10.5205078,17.3370313 C11.5693412,17.2667184 12.5214801,17.1319541 13.3769531,16.9327344 C14.2207073,16.7335146 14.8124983,16.4698454 15.1523438,16.1417188 C15.199219,16.0948435 15.2666011,15.9864462 15.3544922,15.8165234 C15.4423833,15.6466007 15.4687502,15.678827 15.4335938,15.9132031 C15.5273442,16.2999238 15.4218765,16.6163269 15.1171875,16.8624219 C14.8124985,17.1085169 14.5019547,17.2842964 14.1855469,17.3897656 C13.6347629,17.5538289 13.0781278,17.6827339 12.515625,17.7764844 C11.9531222,17.8702348 11.3847685,17.9346873 10.8105469,17.9698438 C10.2363253,18.0050002 9.66211225,18.0167188 9.08789062,18.005 C8.5019502,17.9932812 7.92773719,17.9757032 7.36523437,17.9522656 C6.86132561,17.8936716 6.3427761,17.8380081 5.80957031,17.7852734 C5.27636452,17.7325388 4.81054887,17.5128144 4.41210938,17.1260938 Z"/>
</svg>
