<svg xmlns="http://www.w3.org/2000/svg" width="18" height="18" viewBox="0 0 18 18">
  <g fill="none" fill-rule="evenodd">
    <polygon fill="#6A9FB5" fill-rule="nonzero" points="13.296 11.686 14.149 10.184 17.256 10.184 17.914 9.023 15.939 5.54 12.711 5.54 11.817 3.969 10.902 3.969 10.902 2.877 12.436 2.877 13.33 4.447 15.32 4.447 13.383 1.033 9.56 1.033 9.56 5.608 11.098 5.608 11.724 6.701 9.56 6.701 9.56 8.955 11.599 8.955 12.529 7.316 14.993 7.316 15.613 8.408 13.149 8.408 12.219 10.047 9.56 10.047 9.56 14.282 12.875 14.282 12.255 15.374 9.56 15.374 9.56 17.013 13.383 17.013 16.636 11.277 14.768 11.277 13.916 12.779 10.902 12.779 10.902 11.686"/>
    <polygon fill="#6A9FB5" fill-rule="nonzero" points="4.683 11.686 3.831 10.184 .724 10.184 .066 9.023 2.041 5.54 5.269 5.54 6.163 3.969 7.078 3.969 7.078 2.877 5.544 2.877 4.65 4.447 2.66 4.447 4.597 1.033 8.42 1.033 8.42 5.608 6.882 5.608 6.256 6.701 8.42 6.701 8.42 8.955 6.381 8.955 5.451 7.316 2.987 7.316 2.367 8.408 4.831 8.408 5.761 10.047 8.42 10.047 8.42 14.282 5.105 14.282 5.725 15.374 8.42 15.374 8.42 17.013 4.597 17.013 1.344 11.277 3.212 11.277 4.064 12.779 7.078 12.779 7.078 11.686"/>
  </g>
</svg>
