<svg xmlns="http://www.w3.org/2000/svg" width="18" height="18" viewBox="0 0 18 18">
  <path fill="#8FA959" fill-rule="evenodd" d="M8.296875,17.8116406 L6.08203125,16.5108594 C5.91796793,16.4171089 5.85351545,16.3526564 5.88867188,16.3175 C5.9238283,16.2823436 5.97070283,16.253047 6.02929688,16.2296094 C6.25195424,16.1475777 6.4160151,16.0831252 6.52148438,16.03625 C6.62695365,15.9893748 6.79687383,15.901485 7.03125,15.7725781 C7.05468762,15.7608593 7.08105454,15.7579297 7.11035156,15.7637891 C7.13964858,15.7696485 7.16601551,15.7784374 7.18945312,15.7901563 L8.87695312,16.7921094 C8.91210955,16.8038282 8.94726545,16.8096875 8.98242188,16.8096875 C9.0175783,16.8096875 9.0527342,16.8038282 9.08789062,16.7921094 L15.6796875,12.9776563 C15.7148439,12.9659374 15.7412108,12.9425002 15.7587891,12.9073438 C15.7763673,12.8721873 15.7851562,12.8370314 15.7851562,12.801875 L15.7851562,5.19054688 C15.7851562,5.15539045 15.7763673,5.12316421 15.7587891,5.09386719 C15.7412108,5.06457017 15.7148439,5.03820324 15.6796875,5.01476563 L9.08789062,1.21789063 C9.0527342,1.19445301 9.0175783,1.18273438 8.98242188,1.18273438 C8.94726545,1.18273438 8.91210955,1.19445301 8.87695312,1.21789063 L2.28515625,5.01476563 C2.24999982,5.03820324 2.2236329,5.06457017 2.20605469,5.09386719 C2.18847647,5.12316421 2.1796875,5.15539045 2.1796875,5.19054688 L2.1796875,12.801875 C2.1796875,12.8370314 2.18847647,12.8721873 2.20605469,12.9073438 C2.2236329,12.9425002 2.24999982,12.9659374 2.28515625,12.9776563 L4.09570312,14.0323438 C4.58789309,14.2784387 4.97460797,14.301876 5.25585938,14.1026563 C5.53711078,13.9034365 5.67773438,13.6573452 5.67773438,13.364375 L5.67773438,5.8409375 C5.67773438,5.79406227 5.69531232,5.7501174 5.73046875,5.70910157 C5.76562518,5.66808574 5.81249971,5.64757813 5.87109375,5.64757813 L6.69726562,5.64757813 C6.75585967,5.64757813 6.8027342,5.66808574 6.83789062,5.70910157 C6.87304705,5.7501174 6.890625,5.79406227 6.890625,5.8409375 L6.890625,13.364375 C6.890625,14.0206283 6.72070482,14.5274592 6.38085938,14.8848828 C6.04101393,15.2423065 5.56054998,15.4210156 4.93945312,15.4210156 C4.75195219,15.4210156 4.55566509,15.4034377 4.35058594,15.3682813 C4.14550679,15.3331248 3.83789268,15.2100792 3.42773438,14.9991406 L1.6875,14.0147656 C1.47656145,13.8858587 1.30957093,13.7130089 1.18652344,13.4962109 C1.06347595,13.279413 1.00195312,13.04797 1.00195312,12.801875 L1.00195312,5.19054688 C1.00195312,4.9444519 1.06347595,4.7130089 1.18652344,4.49621094 C1.30957093,4.27941298 1.47656145,4.11242246 1.6875,3.99523438 L8.296875,0.180781253 C8.49609475,0.0635931667 8.72460809,0.00500000268 8.98242188,0.00500000268 C9.24023566,0.00500000268 9.468749,0.0635931667 9.66796875,0.180781253 L16.2773438,3.99523438 C16.4882823,4.11242246 16.6552728,4.27941298 16.7783203,4.49621094 C16.9013678,4.7130089 16.9628906,4.9444519 16.9628906,5.19054688 L16.9628906,12.801875 C16.9628906,13.04797 16.9013678,13.279413 16.7783203,13.4962109 C16.6552728,13.7130089 16.4882823,13.8858587 16.2773438,14.0147656 L9.68554688,17.8116406 C9.40429547,17.9639851 9.14648555,18.0284376 8.91210938,18.005 C8.6777332,17.9815624 8.47265713,17.9171099 8.296875,17.8116406 Z M13.8515625,7.96789063 L12.9902344,7.96789063 C12.9550779,7.96789063 12.9199221,7.95324234 12.8847656,7.92394532 C12.8496092,7.89464829 12.8261719,7.85656274 12.8144531,7.8096875 C12.7089838,7.35265397 12.5068374,7.03918054 12.2080078,6.86925782 C11.9091782,6.69933509 11.4257846,6.614375 10.7578125,6.614375 C9.99608994,6.614375 9.52148531,6.7198427 9.33398438,6.93078125 C9.14648344,7.14171981 9.05273438,7.34093657 9.05273438,7.5284375 C9.05273438,7.77453248 9.17285036,7.95324163 9.41308594,8.06457032 C9.65332151,8.175899 10.2890573,8.29601498 11.3203125,8.42492188 C12.32813,8.56554758 13.0781225,8.767694 13.5703125,9.03136719 C14.0625025,9.29504038 14.3085938,9.7842933 14.3085938,10.4991406 C14.3085938,11.213988 14.0214872,11.770623 13.4472656,12.1690625 C12.873044,12.567502 12.0644583,12.7667188 11.0214844,12.7667188 C9.58007092,12.7667188 8.63672098,12.4971902 8.19140625,11.958125 C7.74609152,11.4190598 7.5234375,10.8741434 7.5234375,10.3233594 C7.5234375,10.2647653 7.54101545,10.2178908 7.57617188,10.1827344 C7.6113283,10.147578 7.65820283,10.13 7.71679688,10.13 L8.56054688,10.13 C8.61914092,10.13 8.66601545,10.1446483 8.70117188,10.1739453 C8.7363283,10.2032423 8.75390625,10.2413279 8.75390625,10.2882031 C8.8242191,10.721799 8.99999859,11.0499208 9.28125,11.2725781 C9.56250141,11.4952355 10.1425737,11.6065625 11.0214844,11.6065625 C11.7128941,11.6065625 12.2138656,11.5216024 12.5244141,11.3516797 C12.8349625,11.181757 12.9902344,10.9151581 12.9902344,10.551875 C12.9902344,10.3409364 12.873048,10.156368 12.6386719,9.99816407 C12.4042957,9.83996015 11.7480523,9.70812553 10.6699219,9.60265625 C9.76757361,9.50890578 9.05566667,9.32726698 8.53417969,9.05773438 C8.01269271,8.78820178 7.75195312,8.2960192 7.75195312,7.58117188 C7.75195312,6.91319979 8.01562236,6.39172063 8.54296875,6.01671875 C9.07031514,5.64171688 9.808589,5.45421875 10.7578125,5.45421875 C11.8125053,5.45421875 12.6064426,5.64171688 13.1396484,6.01671875 C13.6728542,6.39172063 13.974609,6.97179295 14.0449219,7.75695313 C14.0449219,7.81554717 14.0273439,7.86535136 13.9921875,7.90636719 C13.9570311,7.94738302 13.9101565,7.96789063 13.8515625,7.96789063 Z"/>
</svg>
