<svg xmlns="http://www.w3.org/2000/svg" width="18" height="18" viewBox="0 0 18 18">
  <path fill="#AC4142" fill-rule="evenodd" d="M11.296875,3.921875 C10.9739567,4.80729609 10.5729191,5.61978797 10.09375,6.359375 C9.62499766,7.10937875 9.08594055,7.78645531 8.4765625,8.390625 C7.86718445,8.99479469 7.18750375,9.52603937 6.4375,9.984375 C5.68749625,10.4427106 4.87500437,10.8281234 4,11.140625 C3.56249781,11.2968758 3.15625188,11.3229172 2.78125,11.21875 C2.41666484,11.1249995 2.13020938,10.9218766 1.921875,10.609375 C1.71354063,10.2968734 1.61458328,9.89583578 1.625,9.40625 C1.625,8.9062475 1.78645672,8.33333656 2.109375,7.6875 C2.45312672,7.01041328 2.83853953,6.38021125 3.265625,5.796875 C3.69271047,5.20312203 4.16666406,4.66146078 4.6875,4.171875 C5.20833594,3.68228922 5.77083031,3.23958531 6.375,2.84375 C6.97916969,2.43749797 7.63020484,2.08854312 8.328125,1.796875 C9.57813125,1.36978953 10.4505184,1.36718539 10.9453125,1.7890625 C11.4401066,2.21093961 11.557293,2.92187 11.296875,3.921875 Z M10.78125,6.59375 L16.609375,6.171875 C16.536458,6.10937469 16.4765627,6.05468773 16.4296875,6.0078125 C16.3828123,5.96093727 16.3333336,5.91666688 16.28125,5.875 L11.078125,1.703125 C10.9947912,1.63020797 10.9192712,1.53906305 10.8515625,1.4296875 C10.7838538,1.32031195 10.6927089,1.18750078 10.578125,1.03125 L12.515625,1.03125 C12.8802102,1.04166672 13.247394,1.04166672 13.6171875,1.03125 C13.986981,1.02083328 14.3437483,1.04687469 14.6875,1.109375 C15.4479205,1.25520906 16.0260397,1.56770594 16.421875,2.046875 C16.8177103,2.52604406 17.0104167,3.15103781 17,3.921875 C16.9895833,4.28646016 16.9375005,5.12499344 16.84375,6.4375 C16.7499995,7.76042328 16.648438,9.14061781 16.5390625,10.578125 C16.429687,12.0156322 16.3281255,13.3020777 16.234375,14.4375 L16.109375,16.140625 L13.765625,14.046875 L13.65625,13.9375 C13.583333,13.864583 13.5208336,13.8125002 13.46875,13.78125 C12.9999977,13.4791652 12.6510428,13.1093772 12.421875,12.671875 C12.1927072,12.2343728 12.0260422,11.7500027 11.921875,11.21875 C11.8281245,10.7708311 11.7239589,10.3229189 11.609375,9.875 C11.5052078,9.42708109 11.4010422,8.99739789 11.296875,8.5859375 C11.1927078,8.17447711 11.0937505,7.79687672 11,7.453125 C10.9062495,7.10937328 10.8333336,6.82291781 10.78125,6.59375 Z M6.171875,10.875 C6.68229422,11.0312508 7.1874975,11.1927075 7.6875,11.359375 C8.1875025,11.5156258 8.69010164,11.6744784 9.1953125,11.8359375 C9.70052336,11.9973966 10.2083308,12.1614575 10.71875,12.328125 C11.2187525,12.4947925 11.7291641,12.6562492 12.25,12.8125 C11.7083306,13.3541694 11.1510445,13.8567685 10.578125,14.3203125 C10.0052055,14.7838565 9.40104484,15.218748 8.765625,15.625 L15.578125,16.140625 L15.578125,16.234375 L13.84375,16.34375 C12.6874942,16.4270838 11.4036529,16.5156245 9.9921875,16.609375 C8.58072211,16.7031255 7.27083937,16.786458 6.0625,16.859375 C4.84374391,16.932292 4.17708391,16.96875 4.0625,16.96875 C3.09374516,16.9479166 2.34375266,16.6796901 1.8125,16.1640625 C1.28124734,15.6484349 1.01041672,14.9010466 1,13.921875 C0.989583281,13.3697889 1.00520813,12.8203152 1.046875,12.2734375 C1.08854187,11.7265598 1.13020813,11.1822944 1.171875,10.640625 C1.171875,10.5989581 1.19531227,10.5572919 1.2421875,10.515625 C1.28906273,10.4739581 1.32812484,10.4375002 1.359375,10.40625 C1.41145859,10.4479169 1.46614555,10.486979 1.5234375,10.5234375 C1.58072945,10.559896 1.61979156,10.6041664 1.640625,10.65625 C1.78645906,11.0000017 1.96874891,11.4218725 2.1875,11.921875 C2.39583437,12.4218775 2.59895734,12.9062477 2.796875,13.375 C2.99479266,13.8437523 3.16666594,14.2395817 3.3125,14.5625 L3.515625,15.0625 L3.96875,15.015625 C4.27083484,14.9843748 4.51041578,14.9427086 4.6875,14.890625 C4.76041703,14.8697916 4.83333297,14.822917 4.90625,14.75 C4.97916703,14.677083 5.03124984,14.604167 5.0625,14.53125 C5.30208453,13.7812463 5.52604063,13.0312538 5.734375,12.28125 C5.94270937,11.5312463 6.08854125,11.0625009 6.171875,10.875 Z"/>
</svg>
