<svg xmlns="http://www.w3.org/2000/svg" width="18" height="18" viewBox="0 0 18 18">
  <path fill="#AC4142" fill-rule="evenodd" d="M15.9960938,1.78039063 L15.9960938,2.20226563 C15.9960938,2.69445559 15.8232439,3.11632637 15.4775391,3.46789063 C15.1318342,3.81945489 14.7128931,3.99523438 14.2207031,3.99523438 C13.7285132,3.99523438 13.309572,3.81945489 12.9638672,3.46789063 C12.6181623,3.11632637 12.4453125,2.69445559 12.4453125,2.20226563 L12.4453125,1.78039063 C12.4453125,1.28820067 12.6181623,0.869259544 12.9638672,0.52355469 C13.309572,0.177849837 13.7285132,0.00500000268 14.2207031,0.00500000268 C14.7128931,0.00500000268 15.1318342,0.177849837 15.4775391,0.52355469 C15.8232439,0.869259544 15.9960938,1.28820067 15.9960938,1.78039063 Z M7.25976562,2.16710938 C7.9043001,1.85070155 8.59862909,1.62511786 9.34277344,1.49035157 C10.0869178,1.35558527 10.8808552,1.36437424 11.7246094,1.51671875 C11.7714846,1.54015637 11.8007812,1.56945295 11.8125,1.60460938 C11.8242188,1.6397658 11.8300781,1.6749217 11.8300781,1.71007813 C11.8183593,2.09679881 11.9121084,2.47765438 12.1113281,2.85265625 C12.3222667,3.22765813 12.6035139,3.53234258 12.9550781,3.76671875 C13.3066424,4.00109492 13.7167945,4.14171852 14.1855469,4.18859375 C14.6542992,4.22375018 15.1464818,4.0889859 15.6621094,3.78429688 C15.685547,3.76085926 15.7148436,3.75207029 15.75,3.75792969 C15.7851564,3.76378909 15.814453,3.77843739 15.8378906,3.801875 C16.3417994,4.36437782 16.7490219,4.99718399 17.0595703,5.7003125 C17.3701187,6.40344102 17.5664058,7.12999625 17.6484375,7.88 C17.6718751,8.06750094 17.6718751,8.20812453 17.6484375,8.301875 C17.6249999,8.39562547 17.5781254,8.45421864 17.5078125,8.47765625 L14.7832031,8.46007813 C14.7480467,8.46007813 14.7187501,8.44835949 14.6953125,8.42492188 C14.6718749,8.40148426 14.6542969,8.37804699 14.6425781,8.35460938 C14.5957029,7.8389818 14.4082048,7.32336196 14.0800781,6.80773438 C13.7402327,6.28038799 13.3095729,5.84386892 12.7880859,5.49816407 C12.266599,5.15245921 11.666019,4.92687553 10.9863281,4.82140625 C10.3066372,4.71593698 9.58594131,4.82140467 8.82421875,5.1378125 C8.78906232,5.14953131 8.75390643,5.14953131 8.71875,5.1378125 C8.68359357,5.12609369 8.66015631,5.10851574 8.6484375,5.08507813 L7.20703125,2.79992188 C7.20703125,2.5538269 7.20410159,2.3926957 7.19824219,2.31652344 C7.19238278,2.24035118 7.21289039,2.19054699 7.25976562,2.16710938 Z M7.71679688,5.80578125 C7.14257525,6.33312764 6.75000105,6.87218475 6.5390625,7.42296875 C6.31640514,7.98547157 6.22558573,8.53038799 6.26660156,9.05773438 C6.30761739,9.58508076 6.45702996,10.0831227 6.71484375,10.551875 C6.98437635,11.0206273 7.31835738,11.4307795 7.71679688,11.7823438 L7.71679688,12.3096875 L6.24023438,14.63 C6.21679676,14.6651564 6.18457052,14.685664 6.14355469,14.6915234 C6.10253886,14.6973828 6.0644533,14.6885939 6.02929688,14.6651563 C5.44335645,14.2081227 4.93945523,13.6719953 4.51757812,13.0567578 C4.09570102,12.4415204 3.77929793,11.7823473 3.56835937,11.0792188 C3.55664057,11.0440623 3.54785159,10.9503133 3.54199219,10.7979688 C3.53613278,10.6456242 3.56249971,10.5518752 3.62109375,10.5167188 C4.33594107,9.86046547 4.64062553,9.24230759 4.53515625,8.66222657 C4.42968697,8.08214554 4.12500252,7.55773672 3.62109375,7.08898438 C3.57421852,7.04210914 3.54785159,6.94543042 3.54199219,6.79894532 C3.53613278,6.65246021 3.54492176,6.55578149 3.56835937,6.50890625 C3.77929793,5.79405893 4.09863067,5.12902652 4.52636719,4.51378907 C4.9541037,3.89855161 5.46679389,3.36242416 6.06445312,2.90539063 C6.11132836,2.88195301 6.14941392,2.87609369 6.17871094,2.8878125 C6.20800796,2.89953131 6.23437488,2.91710926 6.2578125,2.94054688 L7.71679688,5.26085938 L7.71679688,5.80578125 Z M3.91992188,8.61828125 L3.91992188,9.04015625 C3.91992188,9.54406502 3.74414238,9.97472478 3.39257812,10.3321484 C3.04101387,10.6895721 2.61328377,10.8682813 2.109375,10.8682813 C1.60546623,10.8682813 1.17480647,10.6895721 0.817382812,10.3321484 C0.45995915,9.97472478 0.28125,9.54406502 0.28125,9.04015625 L0.28125,8.61828125 C0.28125,8.11437248 0.45995915,7.68371273 0.817382812,7.32628907 C1.17480647,6.9688654 1.60546623,6.79015625 2.109375,6.79015625 C2.61328377,6.79015625 3.04101387,6.9688654 3.39257812,7.32628907 C3.74414238,7.68371273 3.91992188,8.11437248 3.91992188,8.61828125 Z M8.7890625,12.4503125 C9.37500293,12.7081263 9.98437184,12.8194533 10.6171875,12.7842969 C11.261722,12.7608593 11.8593722,12.608517 12.4101562,12.3272656 C12.9609403,12.0460142 13.4414042,11.6417214 13.8515625,11.114375 C14.250002,10.5987474 14.5136712,9.9835192 14.6425781,9.26867188 C14.6542969,9.23351545 14.6718749,9.20421887 14.6953125,9.18078125 C14.7187501,9.15734364 14.7480467,9.145625 14.7832031,9.145625 L17.5078125,9.145625 C17.6250006,9.145625 17.6865234,9.17199193 17.6923828,9.22472657 C17.6982422,9.2774612 17.6835939,9.44445172 17.6484375,9.72570313 C17.5664058,10.5225821 17.3496111,11.2901526 16.9980469,12.0284375 C16.6464826,12.7667224 16.1894559,13.4288252 15.6269531,14.0147656 C15.6035155,14.0382032 15.5771486,14.0528515 15.5478516,14.0587109 C15.5185545,14.0645703 15.4921876,14.0557814 15.46875,14.0323438 C14.5898394,13.6104666 13.787113,13.6309743 13.0605469,14.0938672 C12.3339807,14.5567601 11.9355472,15.174918 11.8652344,15.9483594 C11.8535156,15.971797 11.8359376,15.9952343 11.8125,16.0186719 C11.7890624,16.0421095 11.7656251,16.0596874 11.7421875,16.0714063 C11.0742154,16.1885943 10.3535195,16.2091019 9.58007812,16.1329297 C8.80663676,16.0567574 8.02148836,15.8135958 7.22460938,15.4034375 C7.15429652,15.3682811 7.11914063,15.2686727 7.11914063,15.1046094 C7.11914063,14.9405461 7.13671857,14.8350784 7.171875,14.7882031 L8.63085938,12.5030469 C8.64257818,12.4796093 8.66601545,12.4620313 8.70117188,12.4503125 C8.7363283,12.4385937 8.76562488,12.4385937 8.7890625,12.4503125 Z M16.1191406,15.7725781 L16.1191406,16.1944531 C16.1191406,16.6983619 15.9404315,17.126092 15.5830078,17.4776563 C15.2255842,17.8292205 14.7949244,18.005 14.2910156,18.005 C13.7871069,18.005 13.3564471,17.8292205 12.9990234,17.4776563 C12.6415998,17.126092 12.4628906,16.6983619 12.4628906,16.1944531 L12.4628906,15.7725781 C12.4628906,15.2686694 12.6415998,14.8409393 12.9990234,14.489375 C13.3564471,14.1378107 13.7871069,13.9620313 14.2910156,13.9620313 C14.7949244,13.9620313 15.2255842,14.1378107 15.5830078,14.489375 C15.9404315,14.8409393 16.1191406,15.2686694 16.1191406,15.7725781 Z"/>
</svg>
