<svg xmlns="http://www.w3.org/2000/svg" width="180" height="40">
  <path fill="#FFF" fill-rule="evenodd" d="M18.4 13.9c-1.2 0-2.1.5-2.9 1.6-.7 1-1 2.4-1 4.1 0 1.7.3 3 1 4.1.7 1 1.7 1.6 3 1.6.6 0 1.3 0 1.9-.3l1.6-.6 1.6 3.2a12.2 12.2 0 0 1-5.2 1.3c-2.8 0-5-1-6.3-2.7a10 10 0 0 1-2.1-6.5c0-2.8.7-5 2.2-6.7a7.7 7.7 0 0 1 6.2-2.7 11 11 0 0 1 5 1.4l-1.2 3L20 14c-.5-.2-1-.2-1.7-.2zm13.9 14.8a8 8 0 0 1-3-.4c-.8-.2-1.4-.6-1.9-1l-1-1.7-.2-2.1v-14l4.3-.5v13.6l.1 1c0 .3.2.6.3.8l.7.5c.3.2.7.3 1.3.3l-.6 3.5zM42 15.4a7 7 0 0 1 5 1.8c1.4 1.2 2 2.9 2 5.1 0 2.1-.7 3.8-2 5a7.5 7.5 0 0 1-5 1.7 7 7 0 0 1-5-1.7c-1.2-1.2-1.8-2.9-1.8-5.1 0-2.1.6-3.8 2-5 1.3-1.2 3-1.8 5-1.8zm0 10c.8 0 1.4-.2 1.9-.8.4-.5.7-1.2.7-2.3 0-1-.2-1.8-.7-2.4a2 2 0 0 0-1.8-1c-.8 0-1.5.4-2 1-.4.5-.6 1.3-.6 2.3 0 1 .2 1.8.6 2.4.4.5 1 .8 1.8.8zM56.6 29c-1.8 0-3-.5-3.8-1.5-.7-1-1-2.3-1-3.8v-7.9h4.3v7.8c0 .6.1 1 .4 1.4.3.3.7.4 1.2.4.4 0 .8 0 1.2-.2l1.3-.6v-8.8h4.3v12.7h-2.2l-1-1.1-2 1a7 7 0 0 1-2.7.6zm18-3.8l.8-.1 1-.4v-5a3.8 3.8 0 0 0-2.1-.8c-1 0-1.5.3-1.9 1-.3.7-.5 1.5-.5 2.2 0 .8.2 1.6.6 2.2.4.6 1 1 2 1zM80.7 9v19.5h-2.2l-.8-1.3a6.4 6.4 0 0 1-4.3 1.6c-2 0-3.4-.7-4.4-2a7.4 7.4 0 0 1-1.5-4.7c0-1.9.5-3.5 1.5-4.8 1-1.3 2.5-2 4.6-2 .5 0 1 0 1.4.2.5.1 1 .3 1.4.6V9.6l4.3-.6zm9.5 6.3c0-1.4.6-2.6 1.8-3.5 1.1-1 2.7-1.5 4.7-1.5a9.9 9.9 0 0 1 5.1 1.4l-1.3 3.1-2-.7-1.8-.2c-.6 0-1 .1-1.5.4-.3.3-.5.6-.5 1 0 .5.3 1 .8 1.3l2.1 1.1c1.3.6 2.5 1.4 3.6 2.4s1.7 2.1 1.7 3.6-.6 2.7-1.8 3.7a7.9 7.9 0 0 1-5 1.4 12.4 12.4 0 0 1-5.7-1.4l1.3-3.3a9.8 9.8 0 0 0 4.2 1.1c.9 0 1.5-.1 2-.4.4-.3.6-.7.6-1.2 0-.4-.3-.8-1-1.1A29.8 29.8 0 0 1 92 19a4.4 4.4 0 0 1-1.8-3.7zM111.8 29c-1.6 0-3-.5-4-1.3a4 4 0 0 1-1.8-3.6V11.9l4.3-.7v5h3.6v3.3h-3.6v4c0 .5.1 1 .4 1.3.3.3.8.5 1.4.5l.8-.1.9-.3 1.2 3-1.4.7a6 6 0 0 1-1.8.3zm10.1 0c-1.7 0-3-.4-3.7-1.4-.7-1-1.1-2.3-1.1-3.8v-7.9h4.3v7.8c0 .6.1 1 .4 1.4.3.3.8.4 1.3.4.3 0 .7 0 1.2-.2l1.2-.6v-8.8h4.3v12.7h-2.1l-1-1.1-2.1 1a7 7 0 0 1-2.7.6zm18-3.7l.9-.1 1-.4v-5a3.8 3.8 0 0 0-2.2-.8c-.9 0-1.5.3-1.8 1-.4.7-.6 1.5-.6 2.2 0 .8.2 1.6.7 2.2.4.6 1 1 2 1zM146 9v19.5h-2.2l-.9-1.3a6.4 6.4 0 0 1-4.2 1.6c-2 0-3.5-.7-4.5-2a7.4 7.4 0 0 1-1.5-4.7c0-1.9.5-3.5 1.5-4.8 1-1.3 2.6-2 4.7-2a6.8 6.8 0 0 1 2.8.7V9.7L146 9zm8.2 2.7c0 .7-.3 1.2-.7 1.7-.5.4-1 .6-1.7.6-.6 0-1.2-.2-1.6-.6-.5-.5-.7-1-.7-1.7 0-.6.2-1.2.7-1.7.4-.4 1-.7 1.6-.7.6 0 1.2.3 1.7.7.4.5.7 1 .7 1.7zm-.2 4v12.8h-4.3V15.8h4.3zm10-.3a7 7 0 0 1 5 1.8c1.3 1.2 1.9 2.9 1.9 5.1 0 2.1-.7 3.8-2 5a7.5 7.5 0 0 1-5.1 1.7 7 7 0 0 1-5-1.7 7 7 0 0 1-1.9-5.1c0-2.1.7-3.8 2-5 1.4-1.2 3-1.8 5-1.8zm-.2 10c.8 0 1.5-.2 2-.8.4-.5.7-1.2.7-2.3 0-1-.2-1.8-.7-2.4a2 2 0 0 0-1.8-1c-.8 0-1.5.4-2 1-.4.5-.6 1.3-.6 2.3 0 1 .2 1.8.6 2.4.4.5 1 .8 1.8.8z"/>
</svg>