<?xml version="1.0" encoding="UTF-8" standalone="no"?>
<svg width="544px" height="118px" viewBox="0 0 544 118" version="1.1" xmlns="http://www.w3.org/2000/svg" xmlns:xlink="http://www.w3.org/1999/xlink">
    <!-- Generator: Sketch 49.1 (51147) - http://www.bohemiancoding.com/sketch -->
    <title>CS LOGO</title>
    <desc>Created with Sketch.</desc>
    <defs></defs>
    <g id="CS-LOGO" stroke="none" stroke-width="1" fill="none" fill-rule="evenodd">
        <g id="Cloud-Studio" transform="translate(30.000000, 30.000000)" fill="#ffffff">
            <path d="M25.1439905,14.6442401 C21.6040321,14.6442401 18.7408734,16.2149762 16.5544285,19.3564956 C14.3679836,22.498015 13.2747776,26.6866446 13.2747776,31.9225102 C13.2747776,36.9489412 14.3289406,41.0328551 16.4372981,44.1743745 C18.5456557,47.3158938 21.4738862,48.8866299 25.2220774,48.8866299 C27.3044059,48.8866299 29.2305308,48.6248406 31.00051,48.101254 C32.7704892,47.5776675 34.3842695,46.9231941 35.8418995,46.1378143 L40.6832889,55.7194004 C38.6530187,56.9236495 36.2063194,57.8530017 33.3431178,58.5074849 C30.4799162,59.1619681 27.7729298,59.4892048 25.2220774,59.4892048 C16.7365889,59.4892048 10.4116111,56.8974902 6.24695416,51.7139832 C2.08229723,46.5304763 0,39.9595635 0,32.0010478 C0,23.7807388 2.22545516,17.0658419 6.67643225,11.8561556 C11.1274093,6.64646934 17.2832005,4.04166528 25.1439905,4.04166528 C27.3824936,4.04166528 29.9202933,4.38199144 32.7574659,5.06265397 C35.5946384,5.74331649 38.0803807,6.76429497 40.2147674,8.12562003 L36.388508,16.9218303 C33.7335392,16.0840918 31.6772707,15.4950657 30.2196407,15.1547345 C28.7620108,14.8144032 27.0701443,14.6442401 25.1439905,14.6442401 Z M66.6572591,59.181105 C62.9423162,59.1236222 59.9275424,58.7212485 57.6128473,57.9739719 C55.2981521,57.2266953 53.4692846,56.1776497 52.1261899,54.8268035 C50.7830951,53.4759574 49.8686614,51.8377217 49.3828612,49.9120474 C48.8970609,47.9863731 48.6541645,45.8164294 48.6541645,43.4021512 L48.6541645,1.69157728 L61.4484021,3.55271368e-15 L61.4484021,40.8154374 C61.4484021,41.9650937 61.5135169,42.9997689 61.6849758,43.9194939 C61.8564347,44.839219 62.1850593,45.6152253 62.6708596,46.2475363 C63.1566598,46.8798473 63.8567731,47.3971848 64.7712206,47.7995645 C65.6856681,48.2019442 66.9144384,48.460613 68.4575685,48.5755787 L66.6572591,59.181105 Z M96.1610472,19.1208828 C102.460091,19.1208828 107.522676,20.9306173 111.348954,24.5501406 C115.175233,28.1696638 117.088344,33.3061161 117.088344,39.9596515 C117.088344,46.3470455 115.058104,51.2838948 110.997563,54.7703473 C106.937023,58.2567999 101.861423,60 95.7706126,60 C89.73186,60 84.8124328,58.2701067 81.0121834,54.8102683 C77.2119339,51.3504299 75.3118377,46.2672051 75.3118377,39.5604414 C75.3118377,33.1730474 77.2900201,28.1696638 81.2464442,24.5501406 C85.2028682,20.9306173 90.1743529,19.1208828 96.1610472,19.1208828 Z M95.9267864,49.2213265 C98.3735224,49.2213265 100.299647,48.4628349 101.705219,46.9458288 C103.110791,45.4288227 103.813566,43.1001203 103.813566,39.9596515 C103.813566,37.032096 103.175863,34.6368591 101.900436,32.7738692 C100.62501,30.9108793 98.7899857,29.9793983 96.395308,29.9793983 C93.8965138,29.9793983 91.9703889,30.8044243 90.6168754,32.4545011 C89.2633619,34.1045779 88.5866153,36.473201 88.5866153,39.5604414 C88.5866153,42.5944536 89.2113045,44.9630766 90.4607015,46.6663817 C91.7100986,48.3696868 93.5321087,49.2213265 95.9267864,49.2213265 Z M139.751573,59.9604303 C134.493693,59.9604303 130.771587,58.4420521 128.585142,55.40525 C126.398697,52.368448 125.305491,48.5986813 125.305491,44.0958369 L125.305491,20.4560219 L138.189834,20.4560219 L138.189834,43.7816865 C138.189834,45.5618808 138.632322,46.9231855 139.517312,47.8656413 C140.402301,48.8080971 141.65168,49.2793179 143.265484,49.2793179 C144.25459,49.2793179 145.425882,49.0175286 146.779396,48.493942 C148.132909,47.9703554 149.382288,47.3682399 150.527568,46.6875774 L150.527568,20.4560219 L163.411911,20.4560219 L163.411911,58.4682161 L156.930696,58.4682161 L153.963393,55.0910997 C152.349589,56.2429901 150.280306,57.3425054 147.755483,58.3896785 C145.230659,59.4368516 142.562716,59.9604303 139.751573,59.9604303 Z M193.493398,48.7295548 C194.274271,48.7295548 195.198291,48.5724812 196.265484,48.2583292 C197.332678,47.9441773 198.282726,47.5514933 199.115657,47.0802653 L199.115657,32.158123 C198.230667,31.4251018 197.189519,30.8229863 195.99218,30.3517584 C194.794841,29.8805305 193.701635,29.6449201 192.712529,29.6449201 C190.109618,29.6449201 188.274594,30.7051669 187.207401,32.8256925 C186.140207,34.9462181 185.606619,37.0798013 185.606619,39.2265062 C185.606619,41.7397217 186.218293,43.9518417 187.441661,45.8629327 C188.665029,47.7740236 190.682255,48.7295548 193.493398,48.7295548 Z M212,3.55271368e-15 L212,58.4682161 L205.440698,58.4682161 L202.86383,54.6198741 C201.562374,55.8241232 199.831465,56.910549 197.671049,57.8791842 C195.510633,58.8478193 193.024891,59.3321296 190.213747,59.3321296 C184.331169,59.3321296 179.880259,57.4341568 176.860883,53.6381542 C173.841507,49.8421517 172.331841,45.0906749 172.331841,39.3835814 C172.331841,33.6764879 173.854521,28.8464743 176.899926,24.8933958 C179.945332,20.9403173 184.591457,18.9638076 190.838443,18.9638076 C192.139898,18.9638076 193.51942,19.1601497 194.97705,19.5528396 C196.43468,19.9455295 197.814202,20.4821977 199.115657,21.1628602 L199.115657,1.67949849 L212,3.55271368e-15 Z" id="Cloud-Studio-Copy-2"></path>
            <path d="M242,19.0349279 C242,14.7862324 243.721162,11.2194799 247.163537,8.3345632 C250.605912,5.44964653 255.326067,4.00720983 261.324145,4.00720983 C263.984162,4.00720983 266.696295,4.40060166 269.460627,5.18739711 C272.224958,5.97419257 274.650232,6.99701132 276.736519,8.25588404 L272.824749,17.4613448 C270.425518,16.5696433 268.417496,15.9008772 266.800623,15.4550265 C265.18375,15.0091757 263.410432,14.7862537 261.480616,14.7862537 C259.602957,14.7862537 258.10346,15.1796455 256.98208,15.9664409 C255.8607,16.7532364 255.300019,17.8022813 255.300019,19.113607 C255.300019,20.5822919 256.1606,21.8149196 257.881787,22.8115272 C259.602975,23.8081348 261.663153,24.935858 264.062384,26.1947307 C267.817702,28.1354928 271.416495,30.5220699 274.85887,33.3545336 C278.301245,36.1869972 280.022406,39.806202 280.022406,44.2122565 C280.022406,48.6183111 278.209971,52.2899681 274.585046,55.2273378 C270.960121,58.1647075 265.887909,59.6333703 259.36826,59.6333703 C256.812557,59.6333703 253.800524,59.1875263 250.332071,58.2958248 C246.863617,57.4041232 244.242757,56.3813045 242.469412,55.2273378 L246.381183,45.3137647 C247.841584,46.1530132 249.810489,46.9529099 252.287956,47.7134788 C254.765423,48.4740477 257.021187,48.8543265 259.055318,48.8543265 C261.611021,48.8543265 263.540808,48.3822563 264.844738,47.4381018 C266.148668,46.4939472 266.800623,45.366224 266.800623,44.0548982 C266.800623,42.8484785 265.874847,41.65519 264.023266,40.4749968 C262.171686,39.2948036 260.150625,38.1539673 257.960022,37.0524537 C254.361176,35.1641446 250.801501,32.8431328 247.28089,30.0893487 C243.760279,27.3355647 242,23.6507945 242,19.0349279 Z M306.406816,60 C301.657548,60 297.57376,58.7673723 294.155331,56.3020799 C290.736902,53.8367874 289.027713,50.1651304 289.027713,45.2869986 L289.027713,31.9115427 L289.027713,21.8406112 L289.027713,8.90091685 L301.866329,7.01261721 L301.866329,21.8406112 L312.765924,21.8406112 L312.765924,31.9115427 L301.866329,31.9115427 L301.866329,43.6347364 C301.866329,45.3656864 302.322983,46.7556708 303.236304,47.8047314 C304.149625,48.853792 305.493491,49.3783145 307.267942,49.3783145 C307.946409,49.3783145 308.742291,49.2602969 309.655612,49.0242583 C310.568933,48.7882197 311.443098,48.4603931 312.278134,48.0407689 L315.957494,56.9315131 C315.070268,57.7707616 313.661165,58.4919799 311.730144,59.0951898 C309.799123,59.6983996 308.024698,60 306.406816,60 Z M337.530347,59.6116626 C332.259181,59.6116626 328.527669,58.0905476 326.335699,55.0482718 C324.14373,52.0059961 323.047761,48.2294345 323.047761,43.7184739 L323.047761,20.0360492 L335.964662,20.0360492 L335.964662,43.4037573 C335.964662,45.1871604 336.408268,46.5509187 337.295494,47.4950732 C338.18272,48.4392278 339.435255,48.911298 341.053138,48.911298 C342.044743,48.911298 343.218995,48.6490367 344.575929,48.1245064 C345.932862,47.5999761 347.185398,46.9967753 348.333572,46.3148859 L348.333572,20.0360492 L361.250473,20.0360492 L361.250473,58.1167588 L354.752881,58.1167588 L351.778079,54.7335552 C350.160197,55.8875219 348.085685,56.989019 345.554482,58.0380796 C343.023278,59.0871402 340.348593,59.6116626 337.530347,59.6116626 Z M409.843871,0 L409.843871,58.5736026 L403.267994,58.5736026 L400.684614,54.7183241 C399.37987,55.9247438 397.644587,57.0131279 395.478712,57.983509 C393.312837,58.95389 390.820813,59.4390733 388.002567,59.4390733 C382.105124,59.4390733 377.642967,57.5376794 374.615961,53.7348347 C371.588955,49.93199 370.075474,45.1719489 370.075474,39.4545686 C370.075474,33.7371883 371.602002,28.8984689 374.655103,24.9382651 C377.708204,20.9780613 382.36607,18.9979891 388.628841,18.9979891 C389.933584,18.9979891 391.316592,19.194685 392.777906,19.5880827 C394.239219,19.9814805 395.622227,20.519116 396.926971,21.2010054 L396.926971,1.68252571 L409.843871,0 Z M390.989848,49.1731077 C391.772695,49.1731077 392.699049,49.015751 393.768939,48.7010328 C394.838829,48.3863146 395.791278,47.9929228 396.626314,47.5208455 L396.626314,32.5718066 C395.739088,31.8374642 394.695309,31.2342634 393.494944,30.7621861 C392.29458,30.2901088 391.198611,30.0540737 390.207006,30.0540737 C387.597518,30.0540737 385.757857,31.1162317 384.687967,33.2405794 C383.618077,35.3649271 383.08314,37.502356 383.08314,39.6529303 C383.08314,42.1706757 383.69636,44.386783 384.922819,46.3013186 C386.149279,48.2158542 388.171602,49.1731077 390.989848,49.1731077 Z M434.196121,8.1616053 C434.196121,10.1023674 433.49157,11.7546131 432.082446,13.1183919 C430.673323,14.4821707 429.003275,15.1640498 427.072254,15.1640498 C425.141233,15.1640498 423.497281,14.4821707 422.140347,13.1183919 C420.783413,11.7546131 420.104956,10.1023674 420.104956,8.1616053 C420.104956,6.22084317 420.783413,4.54237138 422.140347,3.12613956 C423.497281,1.70990775 425.141233,1.00180246 427.072254,1.00180246 C429.003275,1.00180246 430.673323,1.70990775 432.082446,3.12613956 C433.49157,4.54237138 434.196121,6.22084317 434.196121,8.1616053 Z M434.022447,20.0360492 L434.022447,58.1954379 L421.105546,58.1954379 L421.105546,20.0360492 L434.022447,20.0360492 Z M463.019822,19.0342467 C469.334783,19.0342467 474.410161,20.8472432 478.246108,24.4732905 C482.082055,28.0993378 484,33.2450483 484,39.9105764 C484,46.3094834 481.96463,51.2552311 477.893829,54.7479679 C473.823028,58.2407046 468.734603,59.9870468 462.628401,59.9870468 C456.574389,59.9870468 451.642531,58.2540354 447.832679,54.7879608 C444.022826,51.3218862 442.117929,46.2294991 442.117929,39.5106467 C442.117929,33.1117397 444.10111,28.0993378 448.067531,24.4732905 C452.033953,20.8472432 457.018,19.0342467 463.019822,19.0342467 Z M463.484903,49.3306847 C465.937821,49.3306847 467.868813,48.5708259 469.277937,47.0510855 C470.68706,45.5313451 471.391612,43.1984452 471.391612,40.0523159 C471.391612,37.1194836 470.752297,34.7199294 469.473647,32.8535816 C468.194998,30.9872337 466.355337,30.0540737 463.954608,30.0540737 C461.4495,30.0540737 459.518508,30.8805868 458.161574,32.5336378 C456.80464,34.1866888 456.126184,36.5595812 456.126184,39.6523863 C456.126184,42.6918671 456.752451,45.0647595 458.005006,46.7711347 C459.25756,48.4775099 461.084174,49.3306847 463.484903,49.3306847 Z" id="Combined-Shape"></path>
        </g>
    </g>
</svg>
