<svg xmlns="http://www.w3.org/2000/svg" width="18" height="18" viewBox="0 0 18 18">
  <path fill="#825078" fill-rule="evenodd" d="M14.7832031,12.2569531 C14.7011715,13.3936776 14.4609395,14.3253089 14.0625,15.051875 C13.6640605,15.7901599 13.1923855,16.3731619 12.6474609,16.8008984 C12.1025363,17.228635 11.5371123,17.5303897 10.9511719,17.7061719 C10.3769503,17.881954 9.86718973,17.9815624 9.421875,18.005 C8.97656027,18.0167188 8.4492218,17.9757036 7.83984375,17.8819531 C7.24218451,17.7882027 6.64453424,17.571408 6.046875,17.2315625 C5.44921576,16.8917171 4.90429934,16.3995345 4.41210938,15.755 C3.90820061,15.1104655 3.54492299,14.2550053 3.32226562,13.1885938 C3.05273303,11.9932753 3.09960756,10.6866477 3.46289062,9.26867188 C3.82617369,7.83897723 4.34179354,6.48254548 5.00976562,5.19933594 C5.67773771,3.9161264 6.4218709,2.79406731 7.2421875,1.833125 C8.0625041,0.872182698 8.80077797,0.262813792 9.45703125,0.00500000268 C9.36328078,1.82141533 9.60937207,3.23351059 10.1953125,4.24132813 C10.7695341,5.24914567 11.4140589,6.12511347 12.1289062,6.86925782 C12.8437536,7.61340216 13.4882784,8.36632432 14.0625,9.12804688 C14.6367216,9.88976944 14.8769536,10.9327278 14.7832031,12.2569531 Z M7.82226563,16.4405469 C8.41992486,16.5694538 8.92675573,16.6544139 9.34277344,16.6954297 C9.75879114,16.7364455 9.99609346,16.6339075 10.0546875,16.3878125 C10.1015627,16.2003116 9.97851709,16.0362507 9.68554688,15.895625 C9.39257666,15.7549993 9.01758041,15.629024 8.56054688,15.5176953 C8.10351334,15.4063666 7.60547145,15.3096879 7.06640625,15.2276563 C6.51562225,15.1573434 6.01172104,15.0987502 5.5546875,15.051875 C5.83593891,15.3448452 6.21093516,15.6348814 6.6796875,15.9219922 C7.14843984,16.209103 7.52929541,16.3819528 7.82226563,16.4405469 Z"/>
</svg>
