<svg xmlns="http://www.w3.org/2000/svg" width="214" height="160" viewBox="0 0 214 160">
  <g fill="none" fill-rule="evenodd" transform="translate(1)">
    <path fill="#FFFFFF" stroke="#FFFFFF" d="M196.435895,92.730612 C193.124414,94.0230566 189.84299,92.861294 189.104637,90.137882 C188.367591,87.4131631 190.454582,84.1565686 193.766063,82.8654309 C197.077544,81.5729863 200.360274,82.7334421 201.097321,85.458161 C201.834367,88.1828798 199.747376,91.4381675 196.435895,92.730612 M106.01574,147.553001 C69.6378029,147.495501 40.1781686,130.352642 40.1781686,105.810569 C40.1781686,105.295683 40.1964641,104.786023 40.2212937,104.278977 C40.2304414,104.110397 40.2382823,103.943124 40.2500437,103.777158 C40.2722596,103.429544 40.3036233,103.084544 40.3376006,102.739543 C40.3846461,102.278236 40.4382257,101.818236 40.5061803,101.359542 C40.5127144,101.31511 40.5179417,101.269371 40.5257826,101.223633 C41.2576016,96.4001615 43.1328877,89.0388467 45.963459,84.7969102 C52.7667618,74.9565587 64.9005818,68.4015515 78.742415,68.4015515 C89.3995289,68.4015515 99.0360166,72.2932603 106.01574,78.5699148 C112.995464,72.2932603 122.631951,68.4015515 133.287758,68.4015515 C147.130898,68.4015515 159.264718,74.9565587 166.066714,84.7969102 C168.898592,89.0388467 170.772572,96.4001615 171.505698,101.223633 C171.512232,101.269371 171.518766,101.31511 171.523993,101.359542 C171.591948,101.818236 171.646834,102.278236 171.692573,102.739543 C171.72655,103.084544 171.757914,103.429544 171.781437,103.777158 C171.791891,103.943124 171.801039,104.110397 171.80888,104.278977 C171.833709,104.786023 171.852005,105.295683 171.852005,105.810569 C171.852005,130.352642 142.392371,147.495501 106.01574,147.553001 M22.9255363,90.137882 C22.18849,92.861294 18.9057592,94.0230566 15.5955851,92.730612 C12.2841042,91.4381675 10.1971133,88.1828798 10.9341596,85.458161 C11.6712059,82.7334421 14.9526299,81.5729863 18.2641107,82.8654309 C21.5755916,84.1565686 23.6625825,87.4131631 22.9255363,90.137882 M196.269929,65.297855 C190.602252,65.297855 185.636338,68.8929157 182.859346,74.2848534 C173.411041,53.7965357 153.755167,34.814981 129.464004,26.9988929 C116.35791,21.7690009 107.15398,11.7313196 106.01574,0 C104.8775,11.7313196 95.6735698,21.7690009 82.5661692,26.9988929 C58.2750065,34.814981 38.6204397,53.7965357 29.1721339,74.2848534 C26.3951423,68.8929157 21.427921,65.297855 15.7602444,65.297855 C7.05682584,65.297855 0,73.7712733 0,84.2232164 C0,94.6751596 7.05682584,103.147271 15.7602444,103.147271 C18.4078609,103.147271 20.9012727,102.360566 23.0915023,100.975337 C23.84031,134.912135 60.661259,156.941193 106.01574,157 C151.370221,156.941193 188.189863,134.912135 188.939978,100.975337 C191.130208,102.360566 193.622312,103.147271 196.269929,103.147271 C204.974654,103.147271 212.030173,94.6751596 212.030173,84.2232164 C212.030173,73.7712733 204.974654,65.297855 196.269929,65.297855 M64.4656723,87.7978908 C62.5577156,87.7978908 61.0104412,89.6548814 61.0104412,91.947043 C61.0104412,94.2378978 62.5577156,96.0961952 64.4656723,96.0961952 C66.3736289,96.0961952 67.9209033,94.2378978 67.9209033,91.947043 C67.9209033,89.6548814 66.3736289,87.7978908 64.4656723,87.7978908 M146.528193,87.7978908 C144.620237,87.7978908 143.072962,89.6548814 143.072962,91.947043 C143.072962,94.2378978 144.620237,96.0961952 146.528193,96.0961952 C148.43615,96.0961952 149.983424,94.2378978 149.983424,91.947043 C149.983424,89.6548814 148.43615,87.7978908 146.528193,87.7978908"/>
    <path fill="#FFAE0D" d="M167.863779,113.480764 L194.122742,158.496129 C194.401022,158.973181 194.239886,159.585499 193.762834,159.863779 C193.609898,159.952992 193.436018,160 193.258963,160 L140.741037,160 C140.188752,160 139.741037,159.552285 139.741037,159 C139.741037,158.822945 139.788045,158.649065 139.877258,158.496129 L166.136221,113.480764 C166.414501,113.003712 167.026819,112.842576 167.503871,113.120856 C167.652875,113.207775 167.77686,113.33176 167.863779,113.480764 Z"/>
    <path fill="#FFFFFF" d="M170.571463,151.507807 L170.571463,146.206462 C170.571463,145.704229 170.180837,145.285702 169.678604,145.285702 L164.321455,145.285702 C163.819222,145.285702 163.428597,145.704229 163.428597,146.206462 L163.428597,151.507807 C163.428597,152.01004 163.819222,152.428567 164.321455,152.428567 L169.678604,152.428567 C170.180837,152.428567 170.571463,152.01004 170.571463,151.507807 Z M170.515659,141.072527 L171.017892,128.265592 C171.017892,128.098181 170.934186,127.874966 170.738874,127.735457 C170.571463,127.595948 170.320346,127.428537 170.06923,127.428537 L163.93083,127.428537 C163.679713,127.428537 163.428597,127.595948 163.261186,127.735457 C163.065873,127.874966 162.982168,128.153985 162.982168,128.321396 L163.456499,141.072527 C163.456499,141.43525 163.875026,141.714269 164.405161,141.714269 L169.566997,141.714269 C170.06923,141.714269 170.487757,141.43525 170.515659,141.072527 Z"/>
  </g>
</svg>
