<svg xmlns="http://www.w3.org/2000/svg" width="18" height="18" viewBox="0 0 18 18">
  <path fill="#D28445" fill-rule="evenodd" d="M7.62890625,17.0557813 C7.26562318,17.5714088 6.86133035,17.870234 6.41601562,17.9522656 C5.9707009,18.0342973 5.56054875,17.9844931 5.18554688,17.8028516 C4.810545,17.62121 4.51171986,17.3487518 4.2890625,16.9854688 C4.07812395,16.6104669 4.0253901,16.2413299 4.13085938,15.8780469 L4.8515625,13.926875 C5.32031484,12.6260872 5.84765332,11.1817658 6.43359375,9.59386719 C7.01953418,8.00596863 7.56445061,6.53235055 8.06835938,5.17296875 C8.56054934,3.81358696 8.83007789,3.08117241 8.87695312,2.97570313 C9.15820453,2.2608558 9.33984334,1.76281391 9.421875,1.4815625 C9.50390666,1.2003111 9.54492188,0.919063909 9.54492188,0.637812503 C9.54492188,0.415155139 9.55371085,0.265742571 9.57128906,0.189570315 C9.58886728,0.113398059 9.63281215,0.0635938699 9.703125,0.0401562527 C9.99609521,-0.0184377903 10.3535135,-0.00671915747 10.7753906,0.0753125027 C11.1972677,0.145625354 11.6162089,0.262811682 12.0322266,0.426875003 C12.4482443,0.590938323 12.8320295,0.790155081 13.1835938,1.02453125 C13.535158,1.24718862 13.7812493,1.48156127 13.921875,1.72765625 C13.921875,1.75109387 13.9453123,1.81261669 13.9921875,1.91222657 C14.0390627,2.01183644 14.0097662,2.11437448 13.9042969,2.21984375 C13.7285147,2.39562588 13.42676,2.86437119 12.9990234,3.62609375 C12.5712869,4.38781631 11.7421937,6.39756184 10.5117188,9.65539063 C10.1367169,10.6163329 9.78515789,11.5362456 9.45703125,12.4151563 C9.1171858,13.2823481 8.81543101,14.0528482 8.55175781,14.7266797 C8.28808462,15.4005112 8.07421957,15.942498 7.91015625,16.3526563 C7.74609293,16.7745334 7.65234387,17.008906 7.62890625,17.0557813 Z M11.8828125,0.620234378 C11.4960918,0.456171057 11.1591811,0.35363302 10.8720703,0.31261719 C10.5849595,0.27160136 10.400391,0.297968284 10.3183594,0.391718753 C10.2714841,0.450312796 10.2509765,0.503046643 10.2568359,0.549921878 C10.2626953,0.596797112 10.3124995,0.661249593 10.40625,0.743281253 C10.6289074,0.965938616 11.0595671,1.1915223 11.6982422,1.42003907 C12.3369173,1.64855583 12.7499991,1.7276566 12.9375,1.65734375 C13.1367197,1.57531209 13.1308604,1.43175884 12.9199219,1.22667969 C12.7089833,1.02160054 12.3632837,0.819454124 11.8828125,0.620234378 Z M10.3007812,1.833125 C10.2421872,1.76281215 10.183594,1.70714865 10.125,1.66613282 C10.066406,1.62511699 10.0253907,1.60460938 10.0019531,1.60460938 C9.99023432,1.60460938 9.94335979,1.68956947 9.86132812,1.85949219 C9.77929646,2.02941491 9.69140672,2.23742065 9.59765625,2.48351563 C9.55078102,2.60070371 9.41601674,2.9522627 9.19335938,3.53820313 C8.98242082,4.12414356 8.75390748,4.74230144 8.5078125,5.39269532 C8.26171752,6.04308919 8.0390635,6.63195049 7.83984375,7.15929688 L7.54101562,7.93273438 C7.56445324,7.93273438 7.64062436,7.90929711 7.76953125,7.86242188 C7.89843814,7.81554664 8.01562447,7.76867211 8.12109375,7.72179688 C8.23828184,7.67492164 8.38476475,7.6221878 8.56054688,7.56359375 C8.736329,7.50499971 8.88867123,7.46398449 9.01757812,7.44054688 C9.31054834,7.35851522 9.64452938,7.21496197 10.0195312,7.00988282 C10.3945331,6.80480366 10.7109362,6.5850793 10.96875,6.35070313 C11.1445321,6.18663981 11.2880854,5.99621202 11.3994141,5.77941407 C11.5107427,5.56261611 11.6894519,5.13195635 11.9355469,4.48742188 C12.0878914,4.07726358 12.2343743,3.70226733 12.375,3.36242188 C12.5156257,3.02257643 12.6035154,2.82921899 12.6386719,2.78234375 C12.6738283,2.72374971 12.7060545,2.6680862 12.7353516,2.61535157 L12.7792969,2.53625 C12.7792969,2.52453119 12.7148444,2.51574222 12.5859375,2.50988282 C12.4570306,2.50402341 12.2929697,2.49523444 12.09375,2.48351563 C11.7187481,2.46007801 11.3671891,2.38976621 11.0390625,2.27257813 C10.7109359,2.15539004 10.4648446,2.00890713 10.3007812,1.833125 Z M9.4921875,9.84875 C9.38671822,10.0479697 9.33984369,10.1973823 9.3515625,10.2969922 C9.36328131,10.3966021 9.33984404,10.5049994 9.28125,10.6221875 C9.25781238,10.6456251 9.21679717,10.7188666 9.15820312,10.8419141 C9.09960908,10.9649616 9.04101592,11.0967962 8.98242188,11.2374219 C8.95898426,11.3077347 8.84765725,11.5948412 8.6484375,12.09875 C8.46093656,12.6143776 8.25586049,13.159294 8.03320312,13.7335156 C7.81054576,14.3077372 7.60546969,14.8350757 7.41796875,15.3155469 L7.15429688,16.0186719 C7.13085926,16.0538283 7.10742199,16.1153511 7.08398438,16.2032422 C7.06054676,16.2911333 7.03710949,16.3819527 7.01367188,16.4757031 C7.00195307,16.5577348 6.9785158,16.6339059 6.94335938,16.7042188 C6.90820295,16.7745316 6.87890637,16.8155468 6.85546875,16.8272656 C6.83203113,16.8507032 6.81152353,16.8829295 6.79394531,16.9239453 C6.7763671,16.9649611 6.76757812,17.008906 6.76757812,17.0557813 C6.76757812,17.1143753 6.74414086,17.1671091 6.69726562,17.2139844 C6.65039039,17.2608596 6.59179723,17.3018748 6.52148438,17.3370313 C6.42773391,17.3604689 6.3720704,17.3839061 6.35449219,17.4073438 C6.33691397,17.4307814 6.35742158,17.4425 6.41601562,17.4425 C6.46289086,17.4425 6.53613231,17.4132034 6.63574219,17.3546094 C6.73535206,17.2960153 6.82617146,17.2198442 6.90820312,17.1260938 C7.06054764,16.9971869 7.26269405,16.6309796 7.51464844,16.0274609 C7.76660282,15.4239423 8.32030822,14.0030581 9.17578125,11.7647656 C9.43359504,11.0733559 9.67968633,10.4171125 9.9140625,9.79601563 C10.1484387,9.17491877 10.3535147,8.632932 10.5292969,8.17003907 C10.705079,7.70714613 10.8515619,7.34093885 10.96875,7.07140625 C11.0742193,6.79015485 11.1269531,6.64367194 11.1269531,6.63195313 C11.1855472,6.54992147 11.1650396,6.53527318 11.0654297,6.58800782 C10.9658198,6.64074245 10.8398445,6.73742117 10.6875,6.87804688 C10.5937495,6.96007854 10.4882818,7.0538276 10.3710938,7.15929688 C10.2539057,7.26476616 10.1542973,7.34679658 10.0722656,7.40539063 C9.94335873,7.51085991 9.87597659,7.56652341 9.87011719,7.57238282 C9.86425778,7.57824222 9.91992129,7.54601598 10.0371094,7.47570313 C10.1074222,7.42882789 10.1748044,7.39074234 10.2392578,7.36144532 C10.3037113,7.33214829 10.3417968,7.3175 10.3535156,7.3175 C10.3886721,7.3175 10.4033203,7.37316351 10.3974609,7.48449219 C10.3916015,7.59582087 10.3652346,7.69835891 10.3183594,7.79210938 C10.2949218,7.8272658 10.1513685,8.17882479 9.88769531,8.84679688 L9.4921875,9.84875 Z M4.48242188,16.03625 C4.5175783,16.3292202 4.63476463,16.6163267 4.83398438,16.8975781 C5.03320412,17.1788295 5.24999883,17.372187 5.484375,17.4776563 L5.25585938,17.2315625 C5.16210891,17.1143744 5.10351574,17.014766 5.08007812,16.9327344 C5.05664051,16.8507027 5.05664051,16.7159384 5.08007812,16.5284375 C5.09179693,16.3995306 5.12402317,16.2413291 5.17675781,16.0538281 C5.22949245,15.8663272 5.27929664,15.7081256 5.32617188,15.5792188 L6.15234375,13.3995313 C6.19921898,13.2589055 6.25781215,13.1387896 6.328125,13.0391797 C6.39843785,12.9395698 6.47460896,12.8721877 6.55664063,12.8370313 C6.65039109,12.790156 6.70898426,12.7403518 6.73242188,12.6876172 C6.75585949,12.6348826 6.75585949,12.5264852 6.73242188,12.3624219 C6.69726545,12.1983586 6.70019511,12.0841019 6.74121094,12.0196484 C6.78222677,11.955195 6.83789027,11.9815619 6.90820312,12.09875 C6.96679717,12.1807817 7.07226486,12.2100782 7.22460938,12.1866406 C7.37695389,12.163203 7.4882809,12.0987505 7.55859375,11.9932813 C7.65234422,11.8760932 7.68457046,11.7530475 7.65527344,11.6241406 C7.62597642,11.4952337 7.54687564,11.3956254 7.41796875,11.3253125 C7.33593709,11.2784373 7.2861329,11.2198441 7.26855469,11.1495313 C7.25097647,11.0792184 7.25390613,10.9327355 7.27734375,10.7100781 C7.30078137,10.4639831 7.37695248,10.1885953 7.50585938,9.88390625 C7.63476627,9.57921723 7.73437465,9.426875 7.8046875,9.426875 C7.82812512,9.426875 7.84863272,9.39464876 7.86621094,9.33019532 C7.88378915,9.26574187 7.89257813,9.19250041 7.89257813,9.11046875 C7.89257813,8.91124901 7.94531197,8.69152464 8.05078125,8.45128907 C8.15625053,8.21105349 8.24999959,8.0909375 8.33203125,8.0909375 C8.37890648,8.0909375 8.41699204,8.08214853 8.44628906,8.06457032 C8.47558608,8.0469921 8.49023438,8.02648449 8.49023438,8.00304688 C8.49023438,7.96789045 8.48730472,7.94152353 8.48144531,7.92394532 C8.47558591,7.9063671 8.46679693,7.89757813 8.45507812,7.89757813 C8.40820289,7.89757813 8.23535306,8.00597548 7.93652344,8.22277344 C7.63769382,8.4395714 7.4355474,8.60656192 7.33007812,8.72375 C7.21289004,8.84093809 6.99609533,9.27159784 6.6796875,10.0157422 C6.36327967,10.7598865 6.20507812,11.2081242 6.20507812,11.3604688 C6.20507812,11.3956252 6.23437471,11.3926955 6.29296875,11.3516797 C6.35156279,11.3106639 6.42773391,11.249141 6.52148438,11.1671094 C6.60351604,11.0850777 6.68847612,11.0118363 6.77636719,10.9473828 C6.86425825,10.8829294 6.92578107,10.8507031 6.9609375,10.8507031 C6.99609393,10.8507031 6.96093803,10.9210149 6.85546875,11.0616406 C6.74999947,11.2022663 6.60351656,11.3663272 6.41601562,11.5538281 C6.22851469,11.7413291 6.06738349,11.9141789 5.93261719,12.0723828 C5.79785089,12.2305867 5.73046875,12.3272655 5.73046875,12.3624219 L5.53710938,12.9249219 C5.40820248,13.2999238 5.26464923,13.7130056 5.10644531,14.1641797 C4.9482414,14.6153538 4.80468814,15.0342949 4.67578125,15.4210156 C4.54687436,15.7960175 4.48242188,16.0010936 4.48242188,16.03625 Z"/>
</svg>
