<svg version="1.1" id="Layer_3" xmlns="http://www.w3.org/2000/svg" xmlns:xlink="http://www.w3.org/1999/xlink" x="0px" y="0px"
	 width="556px" height="390px" viewBox="0 0 556 390" enable-background="new 0 0 556 390" xml:space="preserve">
<style type="text/css" >
      <![CDATA[
		svg {
            stroke-dasharray: 0%, 150%;
            stroke-dashoffset: 0%;
            stroke: #231F20;
            stroke-linecap: round;
            stroke-linejoin: round;
            fill: transparent;
            -moz-animation: first1 6s 0s ease-in-out alternate infinite;
            -webkit-animation: first1 6s 0s ease-in-out alternate infinite;
            animation: first1 6s 0s ease-in-out alternate infinite;
        }
        svg .eye{
            -webkit-transform-origin:0 140px;
            -moz-transform-origin:0 140px;
            transform-origin:0 140px;
            -webkit-transform:scale(1 ,1);
            -moz-transform:scale(1 ,1);
            transform:scale(1 ,1);
            -moz-animation: eye 5s 5s linear forwards infinite;
            -webkit-animation: eye 5s 5s linear forwards infinite;
            animation: eye 5s 5s linear forwards infinite;
        }
        @-webkit-keyframes eye {
            0% {-webkit-transform:scale(1 ,1);}
            1% {-webkit-transform:scale(1 ,0.1);}
            2% {-webkit-transform:scale(1 ,1);}

            10%{-webkit-transform:scale(1 ,1);}
            11%{-webkit-transform:scale(1 ,0.1);}
            12%{-webkit-transform:scale(1 ,1);}

            17%{-webkit-transform:scale(1 ,1);}
            18%{-webkit-transform:scale(1 ,0.1);}
            19%{-webkit-transform:scale(1 ,1);}

            40%{-webkit-transform:scale(1 ,1);}
            41%{-webkit-transform:scale(1 ,0.1);}
            42%{-webkit-transform:scale(1 ,1);}

            100% {-webkit-transform:scale(1 ,1);}
        }
        @-moz-keyframes eye {
            0% {-moz-transform:scale(1 ,1);}
            1% {-moz-transform:scale(1 ,0.1);}
            2% {-moz-transform:scale(1 ,1);}

            10%{-moz-transform:scale(1 ,1);}
            11%{-moz-transform:scale(1 ,0.1);}
            12%{-moz-transform:scale(1 ,1);}

            17%{-moz-transform:scale(1 ,1);}
            18%{-moz-transform:scale(1 ,0.1);}
            19%{-moz-transform:scale(1 ,1);}

            40%{-moz-transform:scale(1 ,1);}
            41%{-moz-transform:scale(1 ,0.1);}
            42%{-moz-transform:scale(1 ,1);}

            100% {-moz-transform:scale(1 ,1);}
        }
        @keyframes eye {
            0% {transform:scale(1 ,1);}
            1% {transform:scale(1 ,0.1);}
            2% {transform:scale(1 ,1);}

            10%{transform:scale(1 ,1);}
            11%{transform:scale(1 ,0.1);}
            12%{transform:scale(1 ,1);}

            17%{transform:scale(1 ,1);}
            18%{transform:scale(1 ,0.1);}
            19%{transform:scale(1 ,1);}

            40%{transform:scale(1 ,1);}
            41%{transform:scale(1 ,0.1);}
            42%{transform:scale(1 ,1);}

            100% {transform:scale(1 ,1);}
        }
        @-webkit-keyframes first1 {
            0% {
                stroke-dasharray: 0%, 135%;
                stroke-dashoffset: 0%;
            }
            50% {
                stroke-dasharray: 135%, 135%;
                stroke-dashoffset: 0%;
                fill: transparent;
            }
            70% {
                stroke-dasharray: 135%, 135%;
                stroke-dashoffset: 0%;
                fill: #231F20;
            }
            100% {
                stroke-dasharray: 135%, 135%;
                stroke-dashoffset: 0%;
                fill: #231F20;
            }
        }
        @-moz-keyframes first1 {
            0% {
                stroke-dasharray: 0%, 135%;
                stroke-dashoffset: 0%;
            }
            50% {
                stroke-dasharray: 135%, 135%;
                stroke-dashoffset: 0%;
                fill: transparent;
            }
            70% {
                stroke-dasharray: 135%, 135%;
                stroke-dashoffset: 0%;
                fill: #231F20;
            }
            100% {
                stroke-dasharray: 135%, 135%;
                stroke-dashoffset: 0%;
                fill: #231F20;
            }
        }
        @-o-keyframes first1 {
            0% {
                stroke-dasharray: 0%, 135%;
                stroke-dashoffset: 0%;
            }
            50% {
                stroke-dasharray: 135%, 135%;
                stroke-dashoffset: 0%;
                fill: transparent;
            }
            70% {
                stroke-dasharray: 135%, 135%;
                stroke-dashoffset: 0%;
                fill: #231F20;
            }
            100% {
                stroke-dasharray: 135%, 135%;
                stroke-dashoffset: 0%;
                fill: #231F20;
            }
        }
        @keyframes first1 {
            0% {
                stroke-dasharray: 0%, 135%;
                stroke-dashoffset: 0%;
            }
            50% {
                stroke-dasharray: 135%, 135%;
                stroke-dashoffset: 0%;
                fill: transparent;
            }
            70% {
                stroke-dasharray: 135%, 135%;
                stroke-dashoffset: 0%;
                fill: #231F20;
            }
            100% {
                stroke-dasharray: 135%, 135%;
                stroke-dashoffset: 0%;
                fill: #231F20;
            }
        }
      ]]>
</style>
<g>
	<g>
		<path d="M111.335,315.907c-0.1-0.49-0.286-0.948-0.56-1.373c-0.272-0.426-0.613-0.796-1.023-1.111
			c-0.409-0.314-0.88-0.562-1.412-0.742c-0.532-0.181-1.103-0.271-1.712-0.271c-0.865,0-1.649,0.155-2.354,0.465
			c-0.705,0.311-1.306,0.769-1.801,1.374c-0.496,0.605-0.878,1.36-1.146,2.266c-0.269,0.906-0.402,1.959-0.402,3.159
			c0,1.201,0.134,2.259,0.402,3.175c0.269,0.915,0.65,1.684,1.146,2.304c0.495,0.62,1.092,1.091,1.787,1.41
			c0.696,0.32,1.472,0.48,2.327,0.48c1.291,0,2.355-0.317,3.192-0.953c0.837-0.635,1.355-1.562,1.556-2.784h1.133
			c-0.109,0.781-0.332,1.479-0.669,2.094c-0.336,0.615-0.76,1.134-1.269,1.554c-0.51,0.42-1.097,0.74-1.761,0.961
			c-0.664,0.22-1.383,0.33-2.155,0.33c-1.056,0-2.004-0.203-2.846-0.608c-0.841-0.405-1.558-0.978-2.148-1.718
			c-0.592-0.741-1.047-1.639-1.365-2.694s-0.478-2.238-0.478-3.55c0-1.3,0.159-2.471,0.478-3.512
			c0.318-1.04,0.775-1.929,1.372-2.664c0.596-0.735,1.314-1.301,2.155-1.695c0.842-0.396,1.785-0.593,2.832-0.593
			c0.718,0,1.402,0.114,2.054,0.345c0.649,0.23,1.234,0.553,1.753,0.968c0.519,0.416,0.955,0.911,1.31,1.486
			c0.355,0.575,0.601,1.208,0.737,1.898L111.335,315.907L111.335,315.907z"/>
		<path d="M133.024,327.943h-8.802V311.51h1.092v15.233h7.71V327.943z"/>
		<path d="M150.686,311.21c1.019,0,1.96,0.2,2.824,0.6c0.864,0.4,1.607,0.971,2.231,1.711
			c0.623,0.741,1.109,1.631,1.46,2.672c0.35,1.041,0.525,2.201,0.525,3.481c0,1.271-0.173,2.432-0.519,3.482
			c-0.346,1.05-0.83,1.953-1.453,2.709c-0.624,0.755-1.365,1.341-2.225,1.756c-0.86,0.415-1.808,0.623-2.845,0.623
			c-1.037,0-1.988-0.208-2.853-0.623c-0.864-0.415-1.607-0.998-2.23-1.749c-0.623-0.75-1.107-1.65-1.453-2.701
			s-0.519-2.216-0.519-3.497c0-1.29,0.175-2.456,0.525-3.497c0.35-1.04,0.839-1.928,1.467-2.663s1.371-1.304,2.23-1.704
			C148.714,311.41,149.657,311.21,150.686,311.21z M150.672,327.043c0.854,0,1.644-0.162,2.367-0.487
			c0.723-0.325,1.349-0.804,1.876-1.434s0.938-1.403,1.229-2.318c0.291-0.916,0.437-1.959,0.437-3.13
			c0-1.181-0.148-2.221-0.443-3.121c-0.296-0.9-0.705-1.659-1.229-2.274c-0.522-0.615-1.142-1.08-1.855-1.396
			c-0.713-0.316-1.494-0.473-2.34-0.473c-0.864,0-1.658,0.16-2.382,0.48c-0.723,0.32-1.349,0.788-1.876,1.403
			s-0.939,1.373-1.234,2.273c-0.296,0.9-0.443,1.937-0.443,3.106c0,1.171,0.145,2.214,0.437,3.13
			c0.291,0.915,0.697,1.688,1.221,2.318s1.146,1.108,1.869,1.434C149.028,326.881,149.817,327.043,150.672,327.043z"/>
		<path d="M174.966,328.244c-0.892,0-1.653-0.104-2.285-0.308c-0.633-0.205-1.158-0.483-1.576-0.833
			c-0.419-0.351-0.751-0.761-0.996-1.231c-0.246-0.47-0.433-0.97-0.56-1.5c-0.128-0.53-0.207-1.081-0.239-1.651
			c-0.031-0.57-0.048-1.126-0.048-1.666v-9.545h1.092v9.5c0,1.251,0.103,2.269,0.308,3.055c0.204,0.785,0.505,1.397,0.9,1.838
			s0.878,0.74,1.446,0.9s1.221,0.24,1.958,0.24c0.746,0,1.407-0.08,1.985-0.24c0.577-0.16,1.06-0.463,1.446-0.908
			c0.387-0.444,0.68-1.058,0.88-1.838s0.301-1.796,0.301-3.047v-9.5h1.092v9.545c0,1.131-0.087,2.142-0.26,3.032
			c-0.173,0.89-0.473,1.643-0.9,2.259c-0.428,0.615-1.01,1.085-1.747,1.41C177.027,328.081,176.094,328.244,174.966,328.244z"/>
		<path d="M205.005,319.599c0,5.563-2.516,8.345-7.546,8.345h-4.517v-16.419h4.517c2.52,0,4.407,0.668,5.663,2.004
			C204.377,314.864,205.005,316.888,205.005,319.599z M203.845,319.599c0-1.08-0.098-2.046-0.293-2.896
			c-0.196-0.85-0.539-1.573-1.03-2.168c-0.491-0.596-1.148-1.048-1.972-1.358s-1.863-0.466-3.118-0.466h-3.397v14.033h3.397
			c1.246,0,2.281-0.16,3.104-0.48s1.48-0.788,1.972-1.403s0.837-1.363,1.037-2.244C203.744,321.735,203.845,320.729,203.845,319.599
			z"/>
		<path d="M249.363,319.599c0,5.563-2.516,8.345-7.546,8.345H237.3v-16.419h4.517c2.521,0,4.408,0.668,5.663,2.004
			C248.736,314.864,249.363,316.888,249.363,319.599z M248.202,319.599c0-1.08-0.098-2.046-0.293-2.896
			c-0.195-0.85-0.539-1.573-1.029-2.168c-0.492-0.596-1.149-1.048-1.973-1.358s-1.862-0.466-3.118-0.466h-3.397v14.033h3.397
			c1.247,0,2.281-0.16,3.104-0.48s1.48-0.788,1.973-1.403c0.49-0.615,0.836-1.363,1.037-2.244
			C248.103,321.735,248.202,320.729,248.202,319.599z"/>
		<path d="M271.816,327.943h-10.794V311.51h10.425v1.2h-9.333v6.079h8.746v1.2h-8.746v6.754h9.702L271.816,327.943
			L271.816,327.943z"/>
		<path d="M295.208,311.51l-5.854,16.434h-1.405l-5.854-16.434h1.215l5.349,14.933l5.349-14.933H295.208z"/>
		<path d="M316.883,327.943h-10.794V311.51h10.425v1.2h-9.333v6.079h8.746v1.2h-8.746v6.754h9.702L316.883,327.943
			L316.883,327.943z"/>
		<path d="M337.45,327.943h-8.801V311.51h1.092v15.233h7.709L337.45,327.943L337.45,327.943z"/>
		<path d="M355.113,311.21c1.02,0,1.961,0.2,2.825,0.6s1.607,0.971,2.23,1.711c0.623,0.741,1.11,1.631,1.46,2.672
			c0.351,1.041,0.525,2.201,0.525,3.481c0,1.271-0.173,2.432-0.519,3.482s-0.83,1.953-1.453,2.709
			c-0.623,0.755-1.364,1.341-2.224,1.756s-1.809,0.623-2.846,0.623c-1.036,0-1.987-0.208-2.852-0.623s-1.607-0.998-2.23-1.749
			c-0.624-0.75-1.108-1.65-1.453-2.701c-0.347-1.051-0.519-2.216-0.519-3.497c0-1.29,0.175-2.456,0.525-3.497
			c0.35-1.04,0.839-1.928,1.467-2.663c0.627-0.735,1.371-1.304,2.23-1.704C353.141,311.41,354.085,311.21,355.113,311.21z
			 M355.1,327.043c0.854,0,1.644-0.162,2.367-0.487s1.349-0.804,1.876-1.434s0.937-1.403,1.229-2.318
			c0.291-0.916,0.437-1.959,0.437-3.13c0-1.181-0.148-2.221-0.443-3.121c-0.296-0.9-0.705-1.659-1.229-2.274
			s-1.142-1.08-1.855-1.396c-0.715-0.315-1.494-0.473-2.341-0.473c-0.864,0-1.657,0.16-2.381,0.48
			c-0.723,0.32-1.349,0.788-1.876,1.403s-0.939,1.373-1.235,2.273c-0.295,0.9-0.443,1.937-0.443,3.106
			c0,1.171,0.146,2.214,0.437,3.13c0.291,0.915,0.698,1.688,1.222,2.318s1.146,1.108,1.869,1.434
			C353.455,326.881,354.244,327.043,355.1,327.043z"/>
		<path d="M373.69,311.51h5.431c0.728,0,1.429,0.065,2.102,0.195s1.267,0.367,1.78,0.713
			c0.515,0.345,0.924,0.812,1.229,1.403c0.305,0.59,0.457,1.341,0.457,2.251c0,1.611-0.462,2.837-1.385,3.677
			c-0.924,0.841-2.272,1.261-4.046,1.261h-4.476v6.934h-1.092L373.69,311.51L373.69,311.51z M374.781,319.81h4.517
			c0.764,0,1.414-0.08,1.951-0.24s0.976-0.396,1.316-0.706c0.342-0.31,0.589-0.692,0.744-1.147c0.154-0.455,0.231-0.983,0.231-1.584
			c0-0.729-0.115-1.32-0.348-1.771c-0.231-0.45-0.546-0.798-0.941-1.043s-0.853-0.408-1.371-0.488s-1.064-0.12-1.638-0.12h-4.462
			v7.099H374.781z"/>
		<path d="M410.128,327.943h-1.091v-14.468l-5.377,14.468h-1.146l-5.363-14.468v14.468h-1.092V311.51h1.583
			l5.444,14.933l5.485-14.933h1.556v16.433H410.128z"/>
		<path d="M433.1,327.943h-10.794V311.51h10.425v1.2h-9.333v6.079h8.746v1.2h-8.746v6.754h9.702L433.1,327.943
			L433.1,327.943z"/>
		<path d="M456.343,327.943h-1.433l-9.115-15.008v15.008h-1.092V311.51h1.501l9.047,14.979V311.51h1.092V327.943z"/>
		<path d="M478.795,312.71h-5.227v15.233h-1.092V312.71h-5.171v-1.2h11.489L478.795,312.71L478.795,312.71z"/>
	</g>
	<path d="M145.364,288.854l-0.276,0.247c-0.039,0.035-4.012,3.514-12.819,3.514
		c-12.707,0-23.441-11.745-23.441-25.646c0-13.902,10.734-25.647,23.441-25.647c6.413,0,11.688,2.321,16.123,7.095l1.674,1.801
		v-11.94l-0.646-0.228c-0.197-0.068-4.955-1.688-17.151-1.688c-19.624,0-35.589,13.73-35.589,30.608
		c0,18.308,14.302,30.607,35.589,30.607c12.488,0,17.421-6.914,17.625-7.209l1.05-1.516L145.364,288.854z"/>
	<polygon points="353.012,297.575 360.993,297.575 360.993,258.154 353.012,249.949 	"/>
	<path d="M200.366,236.359c-17.535,0-31.801,13.73-31.801,30.608c0,16.877,14.266,30.607,31.801,30.607
		c17.535,0,31.801-13.73,31.801-30.607S217.901,236.359,200.366,236.359z M220.019,266.968c0,14.142-8.816,25.646-19.653,25.646
		s-19.653-11.505-19.653-25.646c0-14.142,8.816-25.647,19.653-25.647S220.019,252.826,220.019,266.968z"/>
	<path d="M272.153,236.362c-0.002,0-0.005,0-0.007,0c-0.112-0.01-2.79-0.233-6.897-0.233
		c-2.41,0-4.811,0.078-7.135,0.232c-8.581,0.569-13.823,1.344-13.875,1.352l-0.824,0.123v4.426l0.999-0.034
		c0.083-0.003,8.385-0.285,12.326-0.285c3.934,0,10.182,0.282,10.259,0.285c15.314,0.466,24.717,14.724,24.717,24.74
		c0,14.142-8.816,25.646-19.655,25.646l-9.247,0.024v-42.434h-12.148v47.37h21.398c17.535,0,31.8-13.73,31.8-30.607
		C303.864,250.092,289.603,236.362,272.153,236.362z"/>
	<path d="M468.592,266.002v25.229c-2.239,0.616-7.618,1.383-9.98,1.383c-12.706,0-23.441-11.745-23.441-25.646
		c0-13.902,10.735-25.647,23.441-25.647c6.413,0,11.688,2.321,16.123,7.095l1.674,1.801v-11.94l-0.646-0.228
		c-0.197-0.068-4.955-1.688-17.151-1.688c-19.624,0-35.589,13.73-35.589,30.608c0,18.308,14.302,30.607,35.589,30.607
		c20.734,0,22.075-9.771,22.122-10.187l0.006-21.387L468.592,266.002L468.592,266.002z"/>
	<polygon points="396.605,278.171 363.24,236.359 353.012,236.359 353.012,242.499 397.484,296.809 397.484,297.575
		404.524,297.575 404.524,236.359 396.605,236.359 	"/>
	<rect x="322.364" y="244.423" width="12.147" height="3.508"/>
	<rect x="322.364" y="236.359" width="12.147" height="2.435"/>
	<rect x="322.364" y="240.013" width="12.147" height="3.037"/>
	<rect x="322.364" y="249.429" width="12.147" height="48.146"/>
	<g>
		<g class="eye">
            <ellipse cx="248.332" cy="140.242"  rx="3.656" ry="4.39"/>
		    <ellipse cx="335.164"  cy="140.242"  rx="3.656" ry="4.39"/>
        </g>
		<path d="
		    M292.297,43

			c-1.204,12.413-10.943,23.034-24.812,28.568
			c-25.703,8.271-46.501,28.355-56.498,50.035
			c-2.938-5.706-8.194-9.509-14.191-9.509
			c-9.21,0-16.676,8.965-16.676,20.025
			c0,11.059,7.466,20.025,16.676,20.025
			c2.801,0,5.439-0.833,7.757-2.299
			c0.793,35.91,39.753,59.219,87.745,59.282
			c47.991-0.062,86.952-23.372,87.745-59.282
			c2.318,1.466,4.956,2.299,7.757,2.299
			c9.21,0,16.676-8.965,16.676-20.025
			C404.474,121.01,397.008,112.044,387.798,112.044
			c-5.997,0-11.253,3.803-14.191,9.509
		    c-9.997-21.679-30.795-41.764-56.498-50.035
			c-13.869-5.534-23.608-16.155-24.812-28.568
			z

			M204.377,138.327
			c-0.78,2.883-4.253,4.111-7.757,2.744
			c-3.504-1.367-5.712-4.812-4.932-7.695
			c0.78-2.883,4.253-4.111,7.757-2.744S205.157,135.444,204.377,138.327
			z

			M292.297,199.08
			c-38.492-0.06-69.664-18.201-69.664-44.17
			c0-0.544,0.02-1.083,0.046-1.621
			c0.009-0.177,0.018-0.354,0.03-0.531
			c0.024-0.367,0.057-0.732,0.093-1.097
			c0.049-0.489,0.107-0.976,0.178-1.46
			c0.007-0.048,0.013-0.096,0.02-0.144
			c0.775-5.104,2.759-12.893,5.755-17.382
			c7.198-10.412,20.037-17.348,34.684-17.348
			c11.276,0,21.473,4.118,28.858,10.759
			c7.385-6.641,17.582-10.759,28.858-10.759
			c14.647,0,27.486,6.937,34.684,17.348
			c2.996,4.489,4.98,12.278,5.755,17.382
			c0.007,0.048,0.013,0.096,0.02,0.144
			c0.072,0.484,0.129,0.972,0.178,1.46
			c0.036,0.365,0.069,0.729,0.093,1.097
			c0.012,0.177,0.021,0.354,0.03,0.531
			c0.026,0.538,0.046,1.077,0.046,1.621
			C361.961,180.88,330.788,199.02,292.297,199.08
			z

			M387.973,141.071
			c-3.504,1.367-6.977,0.139-7.757-2.744s1.428-6.328,4.932-7.695s6.977-0.139,7.757,2.744
			C393.685,136.258,391.477,139.704,387.973,141.071
			z

			"/>
	</g>
</g>
</svg>
