<svg xmlns="http://www.w3.org/2000/svg" width="18" height="18" viewBox="0 0 18 18">
  <path fill="#6A9FB5" fill-rule="evenodd" d="M5.99414062,12.3096875 C5.94726539,12.0284361 5.85937564,11.7823448 5.73046875,11.5714063 C5.60156186,11.3604677 5.39648578,11.2022662 5.11523438,11.0967969 C4.99804629,11.0499216 4.88964894,10.9942581 4.79003906,10.9298047 C4.69042919,10.8653512 4.58789115,10.8038284 4.48242188,10.7452344 C4.35351498,10.6983591 4.22753968,10.648555 4.10449219,10.5958203 C3.9814447,10.5430857 3.85546939,10.4991408 3.7265625,10.4639844 C3.62109322,10.4405468 3.5244145,10.4493357 3.43652344,10.4903516 C3.34863237,10.5313674 3.27539092,10.5928902 3.21679688,10.6749219 C3.16992164,10.7569535 3.15820301,10.8360543 3.18164062,10.9122266 C3.20507824,10.9883988 3.24023414,11.0616403 3.28710938,11.1319531 C3.33398461,11.202266 3.38671846,11.2755074 3.4453125,11.3516797 C3.50390654,11.4278519 3.56249971,11.5010934 3.62109375,11.5714063 C3.71484422,11.6885943 3.8144526,11.8057807 3.91992188,11.9229688 C4.02539115,12.0401568 4.12499953,12.1573432 4.21875,12.2745313 C4.30078166,12.3917193 4.37402312,12.514765 4.43847656,12.6436719 C4.50293001,12.7725788 4.52929693,12.9132024 4.51757812,13.0655469 C4.49414051,13.4053923 4.40918042,13.7159361 4.26269531,13.9971875 C4.11621021,14.2784389 3.91992311,14.5303895 3.67382812,14.7530469 C3.6386717,14.7764845 3.60058614,14.7969921 3.55957031,14.8145703 C3.51855448,14.8321485 3.48046893,14.8350782 3.4453125,14.8233594 C3.29296799,14.8116406 3.14648508,14.7764847 3.00585938,14.7178906 C2.86523367,14.6592966 2.73632871,14.5714068 2.61914062,14.4542188 C2.49023373,14.3370307 2.43457022,14.2110554 2.45214844,14.0762891 C2.46972665,13.9415228 2.56054605,13.8272661 2.72460938,13.7335156 L2.93554688,13.5928906 C3.02929734,13.5225778 3.09082017,13.4317584 3.12011719,13.3204297 C3.14941421,13.209101 3.14062523,13.1007037 3.09375,12.9952344 C3.07031238,12.9366403 3.04394546,12.8809768 3.01464844,12.8282422 C2.98535142,12.7755076 2.94726586,12.7315627 2.90039062,12.6964063 C2.70117088,12.5206241 2.50195412,12.3389853 2.30273437,12.1514844 C2.10351463,11.9639834 1.89257924,11.7882039 1.66992188,11.6241406 C1.1542943,11.2139823 0.758790439,10.7423074 0.483398438,10.2091016 C0.208006436,9.67589577 0.0527345508,9.08703448 0.017578125,8.4425 C-0.0292971094,7.72765268 0.0292960547,7.03332368 0.193359375,6.35949219 C0.357422695,5.6856607 0.632810566,5.04406555 1.01953125,4.4346875 C1.16015695,4.20031133 1.32128815,3.97765731 1.50292969,3.76671875 C1.68457122,3.5557802 1.90429559,3.39757866 2.16210938,3.29210938 C2.3378915,3.21007772 2.51953031,3.14269558 2.70703125,3.08996094 C2.89453219,3.0372263 3.08203031,2.98742211 3.26953125,2.94054688 C3.78515883,2.79992117 4.30370833,2.69445348 4.82519531,2.62414063 C5.34668229,2.55382778 5.87109111,2.55968709 6.3984375,2.64171875 C6.86718984,2.72375041 7.26562336,2.88781127 7.59375,3.13390625 C7.92187664,3.38000123 8.16210861,3.73156022 8.31445312,4.18859375 C8.4199224,4.48156397 8.48730454,4.78331876 8.51660156,5.09386719 C8.54589858,5.40441562 8.54296893,5.71202973 8.5078125,6.01671875 C8.44921846,6.63781561 8.21191614,7.19738032 7.79589844,7.69542969 C7.37988073,8.19347906 6.87304986,8.52453043 6.27539062,8.68859375 C6.01757684,8.7589066 5.80664145,8.76769558 5.64257812,8.71496094 C5.4785148,8.6622263 5.32031326,8.53039168 5.16796875,8.31945313 C5.06249947,8.16710862 4.95996144,8.00890707 4.86035156,7.84484375 C4.76074169,7.68078043 4.66406297,7.51671957 4.5703125,7.35265625 C4.54687488,7.32921864 4.52929693,7.30285171 4.51757812,7.27355469 C4.50585932,7.24425767 4.49414068,7.21789074 4.48242188,7.19445313 L4.44726562,7.12414063 C4.43554682,7.10070301 4.42382818,7.07140643 4.41210938,7.03625 C4.4472658,7.3057826 4.50292931,7.56945184 4.57910156,7.82726563 C4.65527382,8.08507942 4.76367117,8.32531139 4.90429688,8.54796875 C4.98632854,8.67687565 5.0800776,8.78234334 5.18554688,8.864375 C5.29101615,8.94640666 5.42578043,8.99914051 5.58984375,9.02257813 C6.15234656,9.06945336 6.67089606,8.99621191 7.14550781,8.80285157 C7.62011956,8.60949122 8.02734205,8.28429916 8.3671875,7.82726563 C8.74218937,7.32335686 8.97949169,6.77844043 9.07910156,6.1925 C9.17871144,5.60655957 9.17578178,5.00304998 9.0703125,4.38195313 C9.04687488,4.26476504 9.02050796,4.14464906 8.99121094,4.02160157 C8.96191392,3.89855407 8.92968768,3.77843809 8.89453125,3.66125 C8.88281244,3.57921834 8.89160142,3.5118362 8.92089844,3.45910157 C8.95019546,3.40636693 9.00585896,3.36242205 9.08789062,3.32726563 C9.12304705,3.31554682 9.15820295,3.30675784 9.19335938,3.30089844 C9.2285158,3.29503904 9.2636717,3.28625006 9.29882812,3.27453125 C9.76758047,3.18078078 10.2363258,3.1163283 10.7050781,3.08117188 C11.1738305,3.04601545 11.6484351,3.05187477 12.1289062,3.09875 C12.6679714,3.15734405 13.1894506,3.2657414 13.6933594,3.42394532 C14.1972681,3.58214923 14.6718728,3.80773291 15.1171875,4.10070313 C15.8320348,4.56945547 16.4179665,5.13194985 16.875,5.78820313 C17.3320335,6.44445641 17.6777332,7.17687096 17.9121094,7.98546875 C17.9472658,8.10265684 17.9707031,8.22570248 17.9824219,8.35460938 C17.9941407,8.48351627 18,8.60656192 18,8.72375 C18,8.80578166 17.9765627,8.85851551 17.9296875,8.88195313 C17.8828123,8.90539074 17.8300784,8.8878128 17.7714844,8.82921875 C17.7011715,8.77062471 17.6337894,8.71203155 17.5693359,8.6534375 C17.5048825,8.59484346 17.4433597,8.53039098 17.3847656,8.46007813 C17.3378904,8.40148408 17.2880862,8.3370316 17.2353516,8.26671875 C17.1826169,8.1964059 17.1328127,8.1260941 17.0859375,8.05578125 C17.0390623,8.00890602 16.9980471,7.98839841 16.9628906,7.99425782 C16.9277342,8.00011722 16.9042969,8.03234346 16.8925781,8.0909375 C16.8808593,8.13781274 16.8691407,8.17882795 16.8574219,8.21398438 C16.8457031,8.2491408 16.8339844,8.29015602 16.8222656,8.33703125 C16.6933587,8.78234598 16.5263682,9.20421676 16.3212891,9.60265625 C16.1162099,10.0010957 15.8554703,10.3702327 15.5390625,10.7100781 C15.4921873,10.7569534 15.4511721,10.8126169 15.4160156,10.8770703 C15.3808592,10.9415238 15.3632812,11.0089059 15.3632812,11.0792188 C15.3515624,11.2550009 15.3427735,11.4307804 15.3369141,11.6065625 C15.3310547,11.7823446 15.3339843,11.9581241 15.3457031,12.1339063 C15.3808596,12.5089081 15.4218748,12.8839044 15.46875,13.2589063 L15.609375,14.3839063 C15.6328126,14.5948448 15.6064457,14.764765 15.5302734,14.8936719 C15.4541012,15.0225788 15.3164072,15.1221872 15.1171875,15.1925 C14.9765618,15.251094 14.8330085,15.2979686 14.6865234,15.333125 C14.5400383,15.3682814 14.3964851,15.3917187 14.2558594,15.4034375 C14.0214832,15.4151563 13.7841809,15.418086 13.5439453,15.4122266 C13.3037097,15.4063672 13.0664074,15.4034375 12.8320312,15.4034375 C12.8203124,15.1456237 12.8027345,14.8966028 12.7792969,14.6563672 C12.7558593,14.4161316 12.621095,14.2257038 12.375,14.0850781 C12.4218752,13.8858584 12.4687498,13.6925009 12.515625,13.505 C12.5625002,13.3174991 12.6035154,13.1300009 12.6386719,12.9425 C12.6738283,12.7784367 12.676758,12.6202351 12.6474609,12.4678906 C12.6181639,12.3155461 12.5449225,12.1749225 12.4277344,12.0460156 C12.3222651,11.9288275 12.2080084,11.8555861 12.0849609,11.8262891 C11.9619134,11.796992 11.8417975,11.8174997 11.7246094,11.8878125 C11.3613263,12.0870322 10.995119,12.1954296 10.6259766,12.2130078 C10.2568341,12.230586 9.87890818,12.1690632 9.4921875,12.0284375 C9.31640537,11.9698435 9.1669928,11.9581248 9.04394531,11.9932813 C8.92089782,12.0284377 8.81250047,12.1280461 8.71875,12.2921094 C8.61328072,12.4678915 8.53710961,12.6495303 8.49023438,12.8370313 C8.44335914,13.0245322 8.42578119,13.2178896 8.4375,13.4171094 C8.44921881,13.6514855 8.47558573,13.8917175 8.51660156,14.1378125 C8.55761739,14.3839075 8.58984363,14.6299988 8.61328125,14.8760938 C8.63671887,15.0050006 8.63378921,15.0958201 8.60449219,15.1485547 C8.57519517,15.2012893 8.49023508,15.2452342 8.34960938,15.2803906 C8.05663916,15.3624223 7.75488437,15.4092968 7.44433594,15.4210156 C7.13378751,15.4327344 6.8261734,15.4268751 6.52148438,15.4034375 C6.50976557,15.4034375 6.49511728,15.4005078 6.47753906,15.3946484 C6.45996085,15.388789 6.44531256,15.3858594 6.43359375,15.3858594 C6.42187494,15.1280456 6.39843768,14.8790246 6.36328125,14.6387891 C6.32812482,14.3985535 6.15820465,14.2081257 5.85351562,14.0675 C5.98242252,13.7862486 6.04980466,13.4962124 6.05566406,13.1973828 C6.06152347,12.8985532 6.04101586,12.6026577 5.99414062,12.3096875 Z M2.35546875,10.2882031 C2.39062518,10.2530467 2.42578107,10.2032425 2.4609375,10.1387891 C2.49609393,10.0743356 2.51953119,10.0128128 2.53125,9.95421875 C2.56640643,9.80187424 2.53710984,9.64074304 2.44335938,9.47082032 C2.34960891,9.30089759 2.23828189,9.18664092 2.109375,9.12804688 C2.03906215,9.10460926 1.97168001,9.09874994 1.90722656,9.11046875 C1.84277312,9.12218756 1.78710961,9.15734346 1.74023438,9.2159375 C1.62304629,9.3448444 1.50585996,9.47960867 1.38867188,9.62023438 C1.27148379,9.76086008 1.14843814,9.90148367 1.01953125,10.0421094 C1.00781244,10.065547 0.99316415,10.0889843 0.975585938,10.1124219 C0.958007725,10.1358595 0.937500117,10.1651561 0.9140625,10.2003125 C0.867187266,10.2823442 0.858398291,10.3555856 0.887695312,10.4200391 C0.916992334,10.4844925 0.984374473,10.5284374 1.08984375,10.551875 C1.14843779,10.5753126 1.20996062,10.5899609 1.27441406,10.5958203 C1.33886751,10.6016797 1.40039033,10.6046094 1.45898438,10.6046094 C1.6230477,10.5928906 1.78124924,10.5665236 1.93359375,10.5255078 C2.08593826,10.484492 2.22656186,10.4053912 2.35546875,10.2882031 Z M2.37304687,7.26476563 C2.37304687,7.14757754 2.33496132,7.05089882 2.25878906,6.97472657 C2.18261681,6.89855431 2.0917974,6.86046875 1.98632812,6.86046875 C1.86914004,6.86046875 1.76953166,6.90148397 1.6875,6.98351563 C1.60546834,7.06554729 1.57031244,7.15929635 1.58203125,7.26476563 C1.58203125,7.38195371 1.62304646,7.47863243 1.70507812,7.55480469 C1.78710979,7.63097695 1.88085885,7.6690625 1.98632812,7.6690625 C2.0917974,7.65734369 2.18261681,7.61339882 2.25878906,7.53722657 C2.33496132,7.46105431 2.37304687,7.37023491 2.37304687,7.26476563 Z"/>
</svg>
