<svg xmlns="http://www.w3.org/2000/svg" width="18" height="18" viewBox="0 0 18 18">
  <path fill="#488AD5" fill-rule="evenodd" d="M15,12.5039063 C15,11.1210938 13.875,9.99609375 12.5039062,9.99609375 C11.8476562,9.99609375 11.25,10.2539062 10.8046875,10.6757813 L7.98046875,9.26953125 C7.9921875,9.17578125 8.00390625,9.09375 8.00390625,9 C8.00390625,8.90625 7.9921875,8.82421875 7.98046875,8.73046875 L10.8046875,7.32421875 C11.25,7.74609375 11.8476562,8.00390625 12.5039062,8.00390625 C13.875,8.00390625 15,6.87890625 15,5.49609375 C15,4.125 13.875,3 12.5039062,3 C11.1210937,3 9.99609375,4.125 9.99609375,5.49609375 C9.99609375,5.58984375 10.0078125,5.671875 10.0195313,5.765625 L7.1953125,7.171875 C6.75,6.76171875 6.15234375,6.50390625 5.49609375,6.50390625 C4.125,6.50390625 3,7.6171875 3,9 C3,10.3828125 4.125,11.4960938 5.49609375,11.4960938 C6.15234375,11.4960938 6.75,11.2382813 7.1953125,10.828125 L10.0195313,12.234375 C10.0078125,12.328125 9.99609375,12.4101563 9.99609375,12.5039063 C9.99609375,13.875 11.1210937,15 12.5039062,15 C13.875,15 15,13.875 15,12.5039063 Z M18,3.375 L18,14.625 C18,16.4882812 16.4882812,18 14.625,18 L3.375,18 C1.51171875,18 0,16.4882812 0,14.625 L0,3.375 C0,1.51171875 1.51171875,0 3.375,0 L14.625,0 C16.4882812,0 18,1.51171875 18,3.375 Z"/>
</svg>
