<svg xmlns="http://www.w3.org/2000/svg" width="22" height="17" viewBox="0 0 22 17">
  <g fill="none">
    <path fill="#1AA2FC" d="M19.0646,13.9187 C18.6728,14.33266 17.9741,14.80273 16.8271,14.84435 C16.2967,14.86363 15.6773,14.86578 15.394,14.86578 C15.0847,14.86578 12.35721,14.86578 9.23082,14.86578 C11.47316,12.54006 13.42922,10.51134 13.65109,10.28129 C13.85439,10.07042 14.31159,9.60333 14.7059,9.22416 C15.5716,8.39176 16.351,8.22425 16.9021,8.22973 C17.7658,8.23841 18.5512,8.61499 19.1126,9.22297 C20.3136,10.53382 20.2852,12.62873 19.0646,13.9187 Z M20.5409,7.73075 C19.62,6.728002 18.3364,6.09609973 16.9095,6.09600005 C15.676,6.09590037 14.6141,6.550078 13.68689,7.35627 C13.28271,7.70773 12.85875,8.12846 12.32538,8.68167 C12.06048,8.95638 4.3799999,16.9146 4.3799999,16.9146 C4.782636,16.9758 5.336396,16.9941 5.83009,16.9974 C6.29265,17.0005 15.1172,16.9996 15.4866,16.9996 C16.2301,16.9996 16.714,16.9987 17.2337,16.9581 C18.4257,16.8652 19.5518,16.3984 20.462,15.4439 C22.4834,13.32417 22.5137,9.88392 20.5409,7.73075 Z"/>
    <path fill="#1BC5D7" d="M8.14957,7.21907 C7.24675,6.497554 6.23603,6.09431067 5.0901,6.09600518 C3.66321,6.09610485 2.3796,6.728007 1.45867,7.73081 C-0.514188,9.88393 -0.483804,13.32423 1.53755,15.44391 C2.34912,16.2949 3.33226,16.758 4.38069,16.9143 L6.35826,14.86523 C6.03851,14.86384 5.57959,14.85915 5.17243,14.8444 C4.02543,14.80279 3.32675,14.33271 2.93494,13.9187 C1.71434,12.62878 1.68592,10.53387 2.88696,9.22297 C3.44838,8.61504 4.23381,8.23846 5.09743,8.22979 C5.63859,8.22745 6.37301,8.39525 7.20293,9.12992 C7.59912,9.48059 8.4787,10.30626 8.86462,10.67791 C8.88427,10.69684 8.90794,10.69849 8.93094,10.67835 L10.2926,9.2597 C10.3161,9.23523 10.3147,9.20229 10.2915,9.17991 C9.63671,8.54776 8.70837,7.66338 8.14957,7.21907 Z"/>
    <path fill="#0F6FFC" d="M17.4497,4.86483 C16.5101,2.03087 13.98011,2.566596e-10 11.00432,2.566596e-10 C7.59099,2.566596e-10 4.762268,2.68036 4.24999994,6.17185 C4.524523,6.12246 4.806513,6.09629 5.094477,6.09629 C5.49525,6.09569 5.87907,6.14568 6.24792,6.24042 C6.25511,6.24202 6.26234,6.24297 6.26948,6.24481 C6.732,3.88745 8.68353,2.13643 11.00432,2.13643 C12.93723,2.13643 14.633,3.38139 15.3974,5.14547 C15.4094,5.17323 15.4298,5.18245 15.4506,5.17632 C16.0256,5.00762 16.715,4.90954 17.3807,4.96192 C17.4456,4.96705 17.4706,4.92808 17.4497,4.86483 Z"/>
  </g>
</svg>
