<svg width="14" height="14" viewBox="0 0 14 14" fill="none" xmlns="http://www.w3.org/2000/svg">
<path d="M3.8125 10.1875C4.01042 10.3802 4.10938 10.6146 4.10938 10.8906C4.10938 11.1667 4.01042 11.4036 3.8125 11.6016C3.61979 11.7943 3.38542 11.8906 3.10938 11.8906C2.83854 11.8906 2.60417 11.7917 2.40625 11.5937C2.20833 11.3958 2.10938 11.1615 2.10938 10.8906C2.10938 10.6146 2.20573 10.3802 2.39844 10.1875C2.59635 9.98958 2.83333 9.89062 3.10938 9.89062C3.38542 9.89062 3.61979 9.98958 3.8125 10.1875ZM7.70313 11.7969C7.90104 11.9896 8 12.224 8 12.5C8 12.776 7.90104 13.0104 7.70313 13.2031C7.51042 13.401 7.27604 13.5 7 13.5C6.72396 13.5 6.48698 13.401 6.28906 13.2031C6.09635 13.0104 6 12.776 6 12.5C6 12.224 6.09635 11.9896 6.28906 11.7969C6.48698 11.599 6.72396 11.5 7 11.5C7.27604 11.5 7.51042 11.599 7.70313 11.7969ZM2.20313 6.29687C2.40104 6.48958 2.5 6.72396 2.5 7C2.5 7.27604 2.40104 7.51302 2.20313 7.71094C2.01042 7.90365 1.77604 8 1.5 8C1.22396 8 0.986979 7.90365 0.789063 7.71094C0.596354 7.51302 0.5 7.27604 0.5 7C0.5 6.72396 0.596354 6.48958 0.789063 6.29687C0.986979 6.09896 1.22396 6 1.5 6C1.77604 6 2.01042 6.09896 2.20313 6.29687ZM11.8906 10.8906C11.8906 11.1615 11.7917 11.3958 11.5938 11.5937C11.3958 11.7917 11.1615 11.8906 10.8906 11.8906C10.6146 11.8906 10.3776 11.7943 10.1797 11.6016C9.98698 11.4036 9.89063 11.1667 9.89063 10.8906C9.89063 10.6146 9.98698 10.3802 10.1797 10.1875C10.3776 9.98958 10.6146 9.89062 10.8906 9.89062C11.1667 9.89062 11.401 9.98958 11.5938 10.1875C11.7917 10.3802 11.8906 10.6146 11.8906 10.8906ZM3.99219 2.22656C4.23698 2.47135 4.35938 2.76562 4.35938 3.10937C4.35938 3.45312 4.23698 3.7474 3.99219 3.99219C3.7474 4.23698 3.45313 4.35937 3.10938 4.35937C2.76563 4.35937 2.47135 4.23698 2.22656 3.99219C1.98177 3.7474 1.85938 3.45312 1.85938 3.10937C1.85938 2.76562 1.98177 2.47135 2.22656 2.22656C2.47135 1.98177 2.76563 1.85937 3.10938 1.85937C3.45313 1.85937 3.7474 1.98177 3.99219 2.22656ZM13.2031 6.29687C13.401 6.48958 13.5 6.72396 13.5 7C13.5 7.27604 13.401 7.51302 13.2031 7.71094C13.0104 7.90365 12.776 8 12.5 8C12.224 8 11.987 7.90365 11.7891 7.71094C11.5964 7.51302 11.5 7.27604 11.5 7C11.5 6.72396 11.5964 6.48958 11.7891 6.29687C11.987 6.09896 12.224 6 12.5 6C12.776 6 13.0104 6.09896 13.2031 6.29687ZM8.0625 0.4375C8.35417 0.729167 8.5 1.08333 8.5 1.5C8.5 1.91667 8.35417 2.27083 8.0625 2.5625C7.77083 2.85417 7.41667 3 7 3C6.58333 3 6.22917 2.85417 5.9375 2.5625C5.64583 2.27083 5.5 1.91667 5.5 1.5C5.5 1.08333 5.64583 0.729167 5.9375 0.4375C6.22917 0.145833 6.58333 -9.53674e-07 7 -9.53674e-07C7.41667 -9.53674e-07 7.77083 0.145833 8.0625 0.4375ZM12.6406 3.10937C12.6406 3.59375 12.4688 4.00781 12.125 4.35156C11.7813 4.6901 11.3698 4.85937 10.8906 4.85937C10.4063 4.85937 9.99219 4.6901 9.64844 4.35156C9.3099 4.00781 9.14063 3.59375 9.14063 3.10937C9.14063 2.63021 9.3099 2.21875 9.64844 1.875C9.99219 1.53125 10.4063 1.35937 10.8906 1.35937C11.3698 1.35937 11.7813 1.53125 12.125 1.875C12.4688 2.21875 12.6406 2.63021 12.6406 3.10937Z" fill="white"/>
</svg>
